<?xml version="1.0" encoding="utf-8"?>
<!-- Generator: Adobe Illustrator 22.1.0, SVG Export Plug-In . SVG Version: 6.00 Build 0)  -->
<svg version="1.1" id="图层_1" xmlns="http://www.w3.org/2000/svg" xmlns:xlink="http://www.w3.org/1999/xlink" x="0px" y="0px"
	 viewBox="0 0 233.4 68.2" style="enable-background:new 0 0 233.4 68.2;" xml:space="preserve">
<style type="text/css">
	.st0{fill:#FFFFFF;}
	.st1{fill:#7ACCF3;}
</style>
<g>
	<g>
		<g>
			<path class="st0" d="M93.7,28.5c0,0.8-0.1,1.5-0.4,2c-0.3,0.5-0.7,1-1.2,1.3c-0.5,0.3-1.1,0.6-1.7,0.7c-0.6,0.2-1.3,0.2-2,0.2
				h-1.6v5.1h-3.2V24.4h4.9c0.7,0,1.4,0.1,2.1,0.2c0.6,0.1,1.2,0.4,1.7,0.7c0.5,0.3,0.8,0.8,1.1,1.3C93.6,27.1,93.7,27.7,93.7,28.5z
				 M90.5,28.5c0-0.3-0.1-0.6-0.2-0.8c-0.1-0.2-0.3-0.4-0.5-0.5c-0.2-0.1-0.5-0.2-0.7-0.2c-0.3,0-0.6-0.1-0.8-0.1h-1.4v3.2h1.4
				c0.3,0,0.6,0,0.9-0.1c0.3,0,0.5-0.1,0.8-0.3c0.2-0.1,0.4-0.3,0.5-0.5C90.4,29.1,90.5,28.8,90.5,28.5z"/>
			<path class="st0" d="M103.4,37.8l-1.1-2.6h-5.2l-1,2.6h-3.5l5.6-13.4h3.2l5.6,13.4H103.4z M99.8,28l-1.7,4.6h3.4L99.8,28z"/>
			<path class="st0" d="M120.9,31c0,1-0.2,1.9-0.5,2.8c-0.3,0.8-0.8,1.5-1.4,2.1c-0.6,0.6-1.3,1-2.2,1.4c-0.8,0.3-1.8,0.5-2.8,0.5
				s-1.9-0.2-2.8-0.5c-0.8-0.3-1.6-0.8-2.2-1.4c-0.6-0.6-1.1-1.3-1.4-2.1C107.2,33,107,32,107,31c0-1,0.2-1.9,0.5-2.8
				c0.3-0.8,0.8-1.5,1.4-2.1c0.6-0.6,1.3-1,2.2-1.3c0.8-0.3,1.8-0.5,2.8-0.5s1.9,0.2,2.8,0.5s1.6,0.8,2.2,1.3
				c0.6,0.6,1.1,1.3,1.4,2.1C120.7,29.1,120.9,30,120.9,31z M117.6,31c0-0.6-0.1-1.1-0.3-1.5s-0.4-0.9-0.8-1.2
				c-0.3-0.3-0.7-0.6-1.2-0.8c-0.4-0.2-0.9-0.3-1.5-0.3s-1,0.1-1.5,0.3c-0.4,0.2-0.8,0.5-1.2,0.8c-0.3,0.4-0.6,0.8-0.8,1.2
				c-0.2,0.5-0.3,1-0.3,1.5c0,0.6,0.1,1.1,0.3,1.6s0.4,0.9,0.8,1.2s0.7,0.6,1.1,0.8c0.4,0.2,0.9,0.3,1.5,0.3s1-0.1,1.5-0.3
				c0.4-0.2,0.8-0.5,1.2-0.8s0.6-0.8,0.8-1.2C117.5,32.1,117.6,31.6,117.6,31z"/>
			<path class="st0" d="M130.6,27.1v2.8h5.2v2.7h-5.2v5.2h-3.2V24.4h8.8v2.8C136.3,27.1,130.6,27.1,130.6,27.1z"/>
			<path class="st0" d="M151.8,31c0,1-0.2,1.9-0.5,2.8c-0.4,0.8-0.8,1.5-1.4,2.1s-1.4,1-2.2,1.4c-0.9,0.3-1.8,0.5-2.8,0.5
				c-1,0-1.9-0.2-2.8-0.5c-0.9-0.3-1.6-0.8-2.2-1.4c-0.6-0.6-1.1-1.3-1.4-2.1c-0.4-0.8-0.5-1.8-0.5-2.8c0-1,0.2-1.9,0.5-2.8
				c0.4-0.8,0.8-1.5,1.4-2.1s1.4-1,2.2-1.3c0.9-0.3,1.8-0.5,2.8-0.5c1,0,1.9,0.2,2.8,0.5s1.6,0.8,2.2,1.3c0.6,0.6,1.1,1.3,1.4,2.1
				C151.6,29.1,151.8,30,151.8,31z M148.5,31c0-0.6-0.1-1.1-0.3-1.5c-0.2-0.5-0.4-0.9-0.8-1.2c-0.3-0.3-0.7-0.6-1.1-0.8
				c-0.4-0.2-0.9-0.3-1.5-0.3s-1,0.1-1.5,0.3c-0.4,0.2-0.8,0.5-1.1,0.8c-0.3,0.4-0.6,0.8-0.8,1.2c-0.2,0.5-0.3,1-0.3,1.5
				c0,0.6,0.1,1.1,0.3,1.6c0.2,0.5,0.4,0.9,0.8,1.2s0.7,0.6,1.1,0.8c0.4,0.2,0.9,0.3,1.5,0.3c0.5,0,1-0.1,1.5-0.3s0.8-0.5,1.1-0.8
				c0.3-0.3,0.6-0.8,0.8-1.2C148.4,32.1,148.5,31.6,148.5,31z"/>
			<path class="st0" d="M164.3,34.7c-0.3,0.7-0.6,1.2-1.1,1.7c-0.5,0.5-1.1,0.8-1.8,1.1c-0.7,0.3-1.5,0.4-2.3,0.4
				c-0.9,0-1.6-0.1-2.3-0.4s-1.3-0.6-1.8-1.1c-0.5-0.5-0.9-1-1.1-1.7s-0.4-1.4-0.4-2.2v-8.1h3.1v7.9c0,0.4,0.1,0.7,0.1,1
				c0.1,0.3,0.2,0.6,0.4,0.9s0.4,0.5,0.8,0.6c0.3,0.2,0.7,0.2,1.1,0.2s0.8-0.1,1.1-0.2c0.3-0.2,0.6-0.3,0.8-0.6
				c0.2-0.3,0.3-0.5,0.4-0.9c0.1-0.3,0.1-0.7,0.1-1v-7.9h3.2v8.1C164.7,33.3,164.6,34,164.3,34.7z"/>
			<path class="st0" d="M175.6,37.8l-5.4-8.8h-0.1l0.1,8.8h-3.1V24.4h3.7l5.4,8.8h0.1l-0.1-8.8h3.1v13.4L175.6,37.8L175.6,37.8z"/>
			<path class="st0" d="M193.7,31c0,1.2-0.2,2.2-0.7,3c-0.4,0.9-1,1.6-1.7,2.1s-1.5,1-2.4,1.2c-0.9,0.3-1.8,0.4-2.7,0.4h-5V24.4h4.9
				c0.9,0,1.9,0.1,2.8,0.3s1.8,0.6,2.5,1.1s1.3,1.2,1.8,2.1C193.4,28.7,193.7,29.8,193.7,31z M190.3,31c0-0.8-0.1-1.4-0.4-1.9
				s-0.6-0.9-1-1.2c-0.4-0.3-0.9-0.5-1.4-0.6c-0.5-0.1-1.1-0.2-1.6-0.2h-1.6V35h1.5c0.6,0,1.1-0.1,1.7-0.2s1-0.3,1.4-0.7
				c0.4-0.3,0.7-0.7,1-1.2C190.2,32.4,190.3,31.8,190.3,31z"/>
			<path class="st0" d="M195.6,37.8V24.4h9v2.7h-5.9v2.5h5.6v2.6h-5.6V35h6.2v2.8L195.6,37.8L195.6,37.8z"/>
			<path class="st0" d="M214.3,37.8l-2.9-5.3h-1.1v5.3h-3.2V24.4h5.1c0.6,0,1.3,0.1,1.9,0.2c0.6,0.1,1.2,0.4,1.6,0.7
				c0.5,0.3,0.9,0.7,1.2,1.2s0.4,1.2,0.4,1.9c0,0.9-0.2,1.7-0.7,2.3c-0.5,0.6-1.2,1.1-2.1,1.3l3.5,5.8L214.3,37.8L214.3,37.8z
				 M214.2,28.5c0-0.3-0.1-0.6-0.2-0.8c-0.1-0.2-0.3-0.4-0.5-0.5c-0.2-0.1-0.4-0.2-0.7-0.2c-0.3,0-0.5-0.1-0.8-0.1h-1.7v3.1h1.5
				c0.3,0,0.5,0,0.8-0.1c0.3,0,0.5-0.1,0.8-0.2c0.2-0.1,0.4-0.3,0.6-0.5C214.1,29.1,214.2,28.8,214.2,28.5z"/>
			<path class="st0" d="M221.5,29.4h-2.3l1.3-5h2.7L221.5,29.4z"/>
			<path class="st0" d="M231.2,28c-0.3-0.3-0.6-0.6-1-0.8c-0.4-0.2-0.8-0.3-1.2-0.3c-0.2,0-0.4,0-0.6,0.1c-0.2,0-0.4,0.1-0.6,0.2
				c-0.2,0.1-0.3,0.2-0.4,0.4c-0.1,0.2-0.2,0.4-0.2,0.6c0,0.2,0.1,0.4,0.1,0.5c0.1,0.1,0.2,0.3,0.4,0.4c0.2,0.1,0.4,0.2,0.6,0.3
				c0.2,0.1,0.5,0.2,0.8,0.3c0.4,0.1,0.9,0.3,1.4,0.5s0.9,0.4,1.3,0.7c0.4,0.3,0.7,0.6,1,1.1c0.2,0.4,0.4,1,0.4,1.6
				c0,0.7-0.1,1.4-0.4,1.9c-0.3,0.5-0.6,1-1.1,1.3c-0.5,0.3-1,0.6-1.6,0.8c-0.6,0.2-1.2,0.3-1.8,0.3c-0.9,0-1.8-0.2-2.6-0.5
				c-0.9-0.3-1.6-0.8-2.1-1.4l2-2.1c0.3,0.4,0.7,0.7,1.2,1c0.5,0.3,1,0.4,1.5,0.4c0.2,0,0.4,0,0.7-0.1s0.4-0.1,0.6-0.2
				s0.3-0.2,0.4-0.4s0.1-0.4,0.1-0.7c0-0.2-0.1-0.4-0.2-0.6c-0.1-0.2-0.3-0.3-0.5-0.5s-0.5-0.3-0.8-0.4s-0.7-0.2-1.1-0.4
				c-0.4-0.1-0.8-0.3-1.2-0.5c-0.4-0.2-0.7-0.4-1.1-0.7c-0.3-0.3-0.6-0.6-0.7-1c-0.2-0.4-0.3-0.9-0.3-1.5c0-0.7,0.1-1.3,0.4-1.8
				c0.3-0.5,0.7-0.9,1.1-1.2s1-0.6,1.6-0.7s1.2-0.2,1.8-0.2c0.7,0,1.5,0.1,2.2,0.4s1.4,0.6,2,1.2L231.2,28z"/>
		</g>
		<g>
			<path class="st0" d="M96.8,58.7c-1.1,0.5-2.4,0.8-3.9,0.8c-1.3,0-2.6-0.2-3.7-0.7C88,58.4,87,57.8,86.2,57
				c-0.8-0.8-1.5-1.8-2-2.9c-0.5-1.1-0.7-2.4-0.7-3.7c0-1.4,0.2-2.6,0.7-3.8s1.2-2.1,2-2.9c0.8-0.8,1.8-1.4,3-1.8s2.4-0.6,3.7-0.6
				c1.2,0,2.4,0.2,3.6,0.7s2.1,1.1,2.9,1.9l-2.8,2.8c-0.4-0.5-0.9-0.9-1.5-1.2c-0.6-0.3-1.3-0.4-2-0.4c-0.7,0-1.4,0.1-2,0.4
				c-0.6,0.3-1.1,0.6-1.6,1.1c-0.4,0.5-0.8,1-1,1.7s-0.4,1.3-0.4,2.1c0,0.8,0.1,1.5,0.4,2.2c0.2,0.7,0.6,1.2,1,1.7
				c0.4,0.5,0.9,0.8,1.6,1.1c0.6,0.3,1.3,0.4,2,0.4c0.8,0,1.6-0.2,2.2-0.5c0.6-0.3,1.1-0.8,1.5-1.3l2.9,2.7
				C98.8,57.5,97.9,58.2,96.8,58.7z"/>
			<path class="st0" d="M112.8,59.5v-7.6h-7.1v7.6h-4.4V41.2h4.4v6.9h7.1v-6.9h4.4v18.2L112.8,59.5L112.8,59.5z"/>
			<path class="st0" d="M133.7,59.5l-1.4-3.6h-7.1l-1.3,3.6h-4.8l7.7-18.2h4.3l7.6,18.2H133.7z M128.8,46.1l-2.3,6.3h4.6L128.8,46.1
				z"/>
			<path class="st0" d="M140.5,59.5V41.2h4.4v14.4h7.1v3.8H140.5z"/>
			<path class="st0" d="M154,59.5V41.2h4.4v14.4h7.1v3.8H154z"/>
			<path class="st0" d="M168,59.5V41.2h12.3V45h-8v3.5h7.6v3.5h-7.6v3.8h8.5v3.8L168,59.5L168,59.5z"/>
			<path class="st0" d="M194.6,59.5l-7.4-11.9h-0.1l0.1,11.9H183V41.2h5l7.3,11.9h0.1l-0.1-11.9h4.3v18.2L194.6,59.5L194.6,59.5z"/>
			<path class="st0" d="M215.1,59.1c-1.1,0.3-2.4,0.4-3.7,0.4c-1.4,0-2.7-0.2-3.8-0.7c-1.2-0.4-2.2-1.1-3-1.9s-1.5-1.8-2-2.9
				c-0.5-1.1-0.7-2.4-0.7-3.7c0-1.4,0.2-2.7,0.7-3.8c0.5-1.1,1.1-2.1,2-2.9c0.9-0.8,1.9-1.4,3-1.8c1.1-0.4,2.4-0.6,3.7-0.6
				c1.4,0,2.6,0.2,3.8,0.6c1.2,0.4,2.1,1,2.9,1.7l-2.6,3c-0.4-0.5-0.9-0.9-1.6-1.2c-0.7-0.3-1.4-0.5-2.3-0.5c-0.7,0-1.4,0.1-2,0.4
				c-0.6,0.3-1.2,0.6-1.6,1.1c-0.5,0.5-0.8,1.1-1.1,1.7c-0.2,0.7-0.4,1.4-0.4,2.2c0,0.8,0.1,1.5,0.3,2.2c0.2,0.7,0.6,1.2,1,1.7
				s1,0.9,1.7,1.1s1.4,0.4,2.3,0.4c0.5,0,1,0,1.4-0.1c0.4-0.1,0.9-0.2,1.2-0.4v-3.2h-3.3v-3.4h7.1V58
				C217.2,58.5,216.3,58.8,215.1,59.1z"/>
			<path class="st0" d="M220.5,59.5V41.2h12.3V45h-8v3.5h7.6v3.5h-7.6v3.8h8.5v3.8L220.5,59.5L220.5,59.5z"/>
		</g>
		<g>
			<path class="st0" d="M131,20.5c-1.5,0-2.2-0.6-2.2-2v-5.1c-0.1,0.1-0.2,0.2-0.4,0.4c-0.3,0.3-0.5,0.5-0.7,0.7
				c-0.1-0.5-0.3-1-0.5-1.4c1.3-1.2,2.3-2.7,3-4.3l1.5,0.1c0,0.1-0.1,0.2-0.2,0.4c0,0.1-0.1,0.4-0.4,0.7h6.9c0,2-0.1,3.9-0.1,5.8
				c0,1.5-0.6,2.2-2,2.1c-0.5,0-1.1,0-1.8,0c0-0.1-0.1-0.2-0.1-0.5c-0.1-0.4-0.1-0.6-0.2-0.9h-3.8v1.6c-0.1,0.7,0.3,1.1,1.2,1.1h5.3
				c0.7,0,1.2-0.2,1.3-0.8c0.1-0.4,0.2-1,0.2-1.6c0.2,0,0.4,0.1,0.7,0.2s0.5,0.2,0.6,0.2c-0.1,0.6-0.2,1.2-0.3,1.8
				c-0.2,0.9-0.9,1.3-2.2,1.3L131,20.5L131,20.5z M130.4,11.4c-0.3,0.4-0.6,0.9-1,1.4h5.3v4h0.9c0.7,0,1-0.3,1.1-1
				c0.1-1.4,0.1-2.8,0.1-4.4H130.4z M130.1,13.9v1.7h3.3v-1.7H130.1z"/>
			<path class="st0" d="M141,12.5v-1.2h1.5V8.9h1.3v2.4h1.2v1.2h-1.2v1.2c0,0,0.1,0.1,0.1,0.1c0.4,0.3,0.8,0.7,1.4,1.1l-0.7,1.1
				l-0.8-0.9v5.8h-1.3v-5.8c-0.4,1-0.8,2-1.3,2.9c0-0.2-0.1-0.5-0.2-0.9c-0.1-0.4-0.1-0.7-0.2-0.9c0.6-1,1.2-2.2,1.7-3.8L141,12.5
				L141,12.5z M152.3,20.7c-1.3-0.5-2.4-1.1-3.4-1.8c-0.8,0.6-2,1.3-3.6,2c-0.2-0.4-0.4-0.8-0.8-1.2c1.5-0.4,2.6-1,3.5-1.6
				c-0.6-0.7-1.2-1.7-1.7-2.9l1.1-0.4c0.4,1,0.9,1.8,1.5,2.4c0.5-0.5,1-1.4,1.4-2.5l1.2,0.4c-0.4,1.3-1,2.3-1.7,3
				c0.8,0.6,1.9,1.1,3.3,1.5c-0.1,0.1-0.2,0.3-0.4,0.6C152.6,20.4,152.4,20.6,152.3,20.7z M145.7,15.4c-0.2-0.3-0.5-0.7-0.8-1
				c0.8-0.6,1.7-1.4,2.6-2.4l0.9,0.8C147.5,13.9,146.6,14.8,145.7,15.4z M145.4,11.8v-1.2h3.1c-0.1-0.5-0.3-1-0.5-1.6l1.3-0.2
				l0.6,1.8h3v1.2H145.4z M152.3,15.3c-0.9-0.9-1.8-1.7-2.7-2.4l0.8-0.8c0.6,0.5,1.5,1.2,2.5,2.1c0.1,0.1,0.1,0.1,0.1,0.1
				L152.3,15.3z"/>
			<path class="st0" d="M161.2,13.3l-0.1-0.1c0,0.9,0,1.8-0.1,2.7c0,1-0.6,1.6-1.6,1.6l-1.4,0c0-0.2-0.1-0.5-0.2-0.9
				c0-0.1-0.1-0.2-0.1-0.3c0.5,0,0.9,0,1.2,0c0.5,0,0.8-0.2,0.9-0.8c0-0.1,0-0.3,0-0.5c0-0.4,0.1-0.6,0.1-0.8h-2.8v4.3
				c0,0.6,0.2,0.9,0.9,0.9h1.6c0.6,0,0.9-0.2,1-0.6c0-0.1,0-0.2,0.1-0.3c0-0.1,0.1-0.4,0.1-0.9c0.1,0,0.2,0.1,0.4,0.1
				c0.2,0.1,0.5,0.2,0.9,0.3c0,0.3-0.1,0.6-0.2,1.1c0,0.2-0.1,0.3-0.1,0.4c-0.2,0.8-0.8,1.1-1.9,1.1h-2.1c-1.2,0-1.8-0.5-1.8-1.8
				v-5.2c0,0-0.1,0.1-0.2,0.1c-0.1,0.1-0.2,0.2-0.4,0.4c-0.2-0.4-0.4-0.8-0.6-1.2c1.5-1.1,2.7-2.4,3.5-4.1l1.4,0.1
				c0,0.1-0.1,0.1-0.1,0.2c-0.1,0.1-0.1,0.2-0.1,0.3c0.6,0.5,1.3,1.2,2.2,2.2c0.3,0.3,0.5,0.5,0.6,0.6L161.2,13.3z M158.7,10.5
				c-0.6,1-1.4,1.9-2.3,2.7h4.7c-0.3-0.3-0.7-0.8-1.2-1.4C159.4,11.2,159,10.8,158.7,10.5z M162.5,17.9v-7.6h1.3v7.6H162.5z
				 M163,20.7c-0.1-0.4-0.1-0.8-0.2-1.3c0.5,0,1.1,0,1.6,0c0.6,0,0.8-0.3,0.8-0.8V8.9h1.3V19c0.1,1.1-0.5,1.7-1.6,1.7
				C164.2,20.7,163.6,20.7,163,20.7z"/>
			<path class="st0" d="M169.5,17.4c-0.1-0.1-0.4-0.2-0.7-0.4c-0.2-0.1-0.4-0.2-0.4-0.3c0.7-1,1.2-2.1,1.7-3.3l1.2,0.5
				C170.7,14.9,170.1,16.1,169.5,17.4z M179.6,17.2c-0.5-1-0.9-1.9-1.4-2.8c0,0.4,0,1.1-0.1,1.9c0,0.8,0,1.4-0.1,1.8
				c0,1.6-0.8,2.4-2.4,2.4c-0.4,0-0.9,0-1.6,0c-0.3,0-0.5,0-0.6,0c-0.1-0.4-0.2-0.9-0.3-1.4c0.5,0,1.2,0,2.1,0
				c1,0.1,1.5-0.4,1.5-1.5c0-0.4,0-1.2,0.1-2.2c0-1.5,0.1-2.6,0.1-3.3h-3.1v0.1c0.1,4.2-1.4,7-4.4,8.5c-0.1-0.1-0.3-0.4-0.6-0.6
				c-0.2-0.2-0.3-0.4-0.4-0.5c1.6-0.9,2.6-1.9,3.1-2.8c0.5-0.9,0.8-2.4,0.9-4.5v-0.1h-3.5V11h3.6c0-0.3,0-0.6,0.1-1.1
				c0-0.4,0-0.8,0-1h1.4c0,0.2-0.1,0.6-0.1,1.1c0,0.5-0.1,0.8-0.1,1.1h4.4l-0.1,2.9l0.8-0.4c0.6,1.1,1.2,2.1,1.8,3.2L179.6,17.2z"/>
			<path class="st0" d="M192,20.5c-2.9-1.5-4.5-3.7-5-6.5c-0.5,2.8-2.2,5-5.1,6.7c-0.3-0.4-0.6-0.9-1-1.2c3.2-1.6,4.9-4.1,5.2-7.5
				c0.1-0.8,0.1-1.8,0.1-3h1.5c0,0.1-0.1,0.4-0.1,0.9c0,0.4-0.1,0.7-0.1,0.9c0.3,4.3,2.1,7.2,5.4,8.6
				C192.6,19.7,192.2,20.1,192,20.5z"/>
			<path class="st0" d="M194.2,12.5v-1.2h1.4V8.9h1.2v2.4h1.1v1.2h-1.1v2.1c0.4-0.1,0.8-0.2,1.2-0.3c0,0.6,0,1,0.1,1.2l-1.2,0.4v3.3
				c0,1-0.4,1.5-1.3,1.5c-0.3,0-0.7,0-1.2,0c0-0.4-0.1-0.8-0.2-1.3c0.2,0,0.5,0,0.9,0c0.4,0,0.6-0.2,0.6-0.6v-2.6
				c-0.2,0-0.5,0.1-0.9,0.2c-0.2,0.1-0.4,0.1-0.5,0.1l-0.1-1.4c0.1,0,0.2,0,0.3-0.1c0.3-0.1,0.7-0.2,1.2-0.3v-2.4L194.2,12.5
				L194.2,12.5z M198.1,17.4l-0.6-1.1c0.2-0.2,0.6-0.4,1.1-0.8c0.7-0.5,1.2-0.8,1.5-1.1V9h1.2v5.3c0,1.8-0.2,3.1-0.6,4
				c-0.4,0.9-1.1,1.8-2.3,2.7c-0.1-0.1-0.3-0.3-0.6-0.6c-0.2-0.2-0.3-0.3-0.4-0.4c1.6-1,2.4-2.4,2.5-4L198.1,17.4z M198.9,13.8
				c-0.1-0.2-0.2-0.5-0.3-1c-0.3-1-0.6-1.7-0.7-2.1l0.9-0.3c0.2,0.6,0.6,1.5,1.1,2.8c0,0.1,0.1,0.2,0.1,0.2L198.9,13.8z M205.5,17.1
				c-0.3-0.2-0.7-0.5-1.3-0.9c-0.3-0.2-0.5-0.4-0.6-0.4v3.1c0,0.3,0.1,0.5,0.5,0.5h0.4c0.3,0,0.5-0.2,0.6-0.5
				c0.1-0.5,0.1-0.9,0.1-1.4c0.2,0.1,0.5,0.2,0.9,0.4c0.1,0,0.2,0,0.2,0c0,0.6-0.1,1.1-0.1,1.5c-0.2,0.8-0.7,1.2-1.6,1.2h-0.8
				c-1,0-1.4-0.4-1.4-1.4V9h1.2v4.2c0.4-0.7,0.9-1.6,1.4-2.6l1,0.6c-0.6,1.2-1.1,2.1-1.6,2.8l-0.9-0.5v1.1c0.1,0.1,0.4,0.2,0.6,0.4
				c0.8,0.5,1.5,0.9,2,1.3L205.5,17.1z"/>
			<path class="st0" d="M213.5,19.8c-0.2-0.3-0.4-0.6-0.7-0.9v1.4h-1.3v-0.8h-2.4v0.9h-1.2v-5.9h1.7V8.9h1.4v2.2h2.3v1.2h-2.3v2.3h2
				v4.2c1.1-0.6,1.8-1.2,2.3-1.6c-0.2-0.9-0.4-2.2-0.5-3.7l-1.5,0.2l-0.2-1.2l1.6-0.2v-0.1c-0.1-1.2-0.1-2.3-0.1-3.4h1.3
				c0,1.1,0.1,2.2,0.1,3.4l3.5-0.4l0.1,1.1l-3.6,0.5c0.1,1.1,0.2,2,0.4,2.8c0.7-0.7,1.4-1.6,2-2.6l1.1,0.7c-0.8,1.3-1.7,2.4-2.7,3.3
				c0.2,0.5,0.4,1,0.7,1.4c0.2,0.3,0.4,0.5,0.6,0.5c0.3,0,0.4-0.2,0.4-0.6c0.1-0.4,0.2-1,0.2-1.7c0.4,0.1,0.8,0.3,1.2,0.5
				c0,0.1-0.1,0.3-0.1,0.6c-0.1,0.7-0.2,1.2-0.3,1.4c-0.2,0.8-0.6,1.2-1.3,1.2c-0.9,0.1-1.6-0.5-2.1-1.6c-0.1-0.2-0.2-0.4-0.4-0.7
				C214.9,19,214.2,19.5,213.5,19.8z M209.1,15.8v2.8h2.4v-2.8H209.1z M218,11.5c-0.5-0.6-1.1-1.1-1.7-1.5l0.8-0.9
				c0.6,0.4,1.2,0.9,1.8,1.5L218,11.5z"/>
			<path class="st0" d="M221.6,11.8v-2h5c0-0.1-0.1-0.3-0.1-0.4c-0.1-0.2-0.1-0.3-0.1-0.4l1.5-0.1c0.1,0.2,0.1,0.5,0.2,0.9
				c0,0,0,0.1,0,0.1h4.9v2h-1.1v0.6h-2.1v0.8h2.4V14h-2.4v0.7h3.3v0.9h-2.9c0.9,0.6,1.9,1,3.1,1.3c0,0.1-0.1,0.3-0.2,0.5
				c-0.1,0.2-0.2,0.4-0.2,0.5c-0.7-0.3-1.3-0.5-1.8-0.8V19h-1.2v-1.8h-5v1.9h-1.2v-2c-0.6,0.3-1.2,0.6-1.9,0.8
				c0-0.1-0.1-0.3-0.2-0.5c-0.1-0.3-0.2-0.5-0.2-0.5c1.2-0.3,2.2-0.8,3.1-1.4h-2.9v-0.9h3.3V14h-2.3v-0.8h2.3v-0.8h-2v-0.6
				L221.6,11.8L221.6,11.8z M232.4,21c-2-0.6-3.7-1.1-5.1-1.5h-0.1c-0.6,0.7-2.3,1.2-5.1,1.5c-0.2-0.5-0.4-0.9-0.6-1.1
				c2.6-0.2,4.1-0.5,4.6-1c0.3-0.3,0.5-0.7,0.6-1.3h1.3c0,0.4-0.1,0.7-0.1,1l5,1.2L232.4,21z M222.9,10.7v1h1.9V11h1.3v0.6h2.6V11
				h1.3v0.6h1.9v-1H222.9z M226,15.5c-0.3,0.3-0.7,0.6-1,0.9h4.9c-0.3-0.2-0.7-0.5-1-0.9H226z M226.1,12.5v0.8h2.6v-0.8H226.1z
				 M226.1,14v0.7h2.6V14H226.1z"/>
		</g>
		<g>
			<path class="st0" d="M83.8,20.7v-2.3l4.5-4.1c0.3-0.3,0.5-0.6,0.7-0.8s0.3-0.6,0.3-0.9c0-0.4-0.1-0.8-0.4-1
				c-0.3-0.3-0.6-0.4-1-0.4c-0.5,0-0.8,0.2-1.1,0.5c-0.3,0.3-0.5,0.7-0.5,1.3l-2.6-0.4c0.1-0.6,0.2-1.1,0.5-1.6
				c0.2-0.5,0.6-0.9,1-1.2c0.4-0.3,0.8-0.6,1.3-0.7c0.5-0.2,1-0.3,1.6-0.3c0.5,0,1.1,0.1,1.6,0.2s0.9,0.4,1.3,0.6
				c0.4,0.3,0.7,0.7,0.9,1.1c0.2,0.4,0.3,1,0.3,1.6c0,0.4-0.1,0.8-0.2,1.1s-0.3,0.6-0.4,0.9c-0.2,0.3-0.4,0.6-0.7,0.8
				s-0.5,0.5-0.8,0.7l-2.7,2.4h4.7v2.4L83.8,20.7L83.8,20.7z"/>
			<path class="st0" d="M102.4,14.9c0,0.8-0.1,1.6-0.2,2.3c-0.2,0.7-0.4,1.4-0.8,1.9c-0.3,0.5-0.8,1-1.4,1.3c-0.6,0.3-1.2,0.5-2,0.5
				c-0.8,0-1.5-0.2-2-0.5c-0.6-0.3-1-0.8-1.4-1.3s-0.6-1.2-0.8-1.9c-0.2-0.7-0.2-1.5-0.2-2.3c0-0.8,0.1-1.6,0.2-2.3
				c0.2-0.7,0.4-1.3,0.8-1.9c0.4-0.5,0.8-1,1.4-1.3S97.2,9,98,9s1.5,0.2,2,0.5s1,0.8,1.4,1.3c0.3,0.5,0.6,1.2,0.8,1.9
				C102.3,13.4,102.4,14.1,102.4,14.9z M99.7,14.9c0-0.4,0-0.7-0.1-1.2c0-0.4-0.1-0.8-0.2-1.2c-0.1-0.4-0.3-0.7-0.5-0.9
				s-0.5-0.4-0.8-0.4s-0.6,0.1-0.9,0.4s-0.4,0.6-0.5,0.9c-0.1,0.4-0.2,0.8-0.2,1.2c0,0.4-0.1,0.8-0.1,1.2c0,0.4,0,0.8,0.1,1.2
				c0,0.4,0.1,0.8,0.2,1.2s0.3,0.7,0.5,0.9c0.2,0.2,0.5,0.4,0.9,0.4s0.6-0.1,0.8-0.4s0.4-0.6,0.5-0.9c0.1-0.4,0.2-0.8,0.2-1.2
				C99.7,15.7,99.7,15.3,99.7,14.9z"/>
			<path class="st0" d="M103.9,20.7v-2.3l4.5-4.1c0.3-0.3,0.5-0.6,0.7-0.8s0.3-0.6,0.3-0.9c0-0.4-0.1-0.8-0.4-1
				c-0.3-0.3-0.6-0.4-1-0.4c-0.5,0-0.8,0.2-1.1,0.5c-0.3,0.3-0.5,0.7-0.5,1.3l-2.6-0.4c0.1-0.6,0.2-1.1,0.5-1.6
				c0.2-0.5,0.6-0.9,1-1.2c0.4-0.3,0.8-0.6,1.3-0.7c0.5-0.2,1-0.3,1.6-0.3c0.5,0,1.1,0.1,1.6,0.2s0.9,0.4,1.3,0.6
				c0.4,0.3,0.7,0.7,0.9,1.1c0.2,0.4,0.3,1,0.3,1.6c0,0.4-0.1,0.8-0.2,1.1s-0.3,0.6-0.4,0.9c-0.2,0.3-0.4,0.6-0.7,0.8
				s-0.5,0.5-0.8,0.7l-2.7,2.4h4.7v2.4L103.9,20.7L103.9,20.7z"/>
			<path class="st0" d="M117.1,20.9v-8.7l-2.2,1.7l-1.5-2l3.9-2.9h2.6v11.9C119.9,20.9,117.1,20.9,117.1,20.9z"/>
		</g>
	</g>
	<g>
		<g>
			<path class="st1" d="M30.9,61.8c-0.8,0-1.5-0.4-2-1.1c-0.7-1.1-0.4-2.6,0.7-3.3l34.9-22.2c1.1-0.7,2.6-0.4,3.3,0.7
				c0.7,1.1,0.4,2.6-0.7,3.3L32.2,61.5C31.8,61.7,31.4,61.8,30.9,61.8z"/>
			<path class="st1" d="M24.6,55.5c-0.7,0-1.5-0.3-1.9-1c-0.8-1.1-0.5-2.5,0.5-3.3l47.6-34.9c1.1-0.8,2.6-0.6,3.3,0.5
				s0.6,2.5-0.5,3.3L26,55C25.6,55.3,25.1,55.5,24.6,55.5z"/>
			<path class="st1" d="M18.2,49.2c-0.7,0-1.4-0.3-1.9-1c-0.8-1-0.6-2.5,0.5-3.3L67.5,6.8c1.1-0.8,2.5-0.6,3.3,0.5
				c0.8,1.1,0.6,2.5-0.5,3.3l-50.7,38C19.2,49,18.7,49.2,18.2,49.2z"/>
			<path class="st1" d="M11.9,42.8c-0.9,0-1.8-0.5-2.2-1.4L0.2,19.2c-0.5-1.2,0-2.6,1.2-3.1s2.6,0,3.1,1.2l9.5,22.2
				c0.5,1.2-0.1,2.6-1.2,3.1C12.5,42.8,12.2,42.8,11.9,42.8z"/>
			<path class="st1" d="M18.2,36.5c-0.9,0-1.7-0.5-2.1-1.3L3.4,9.8C2.8,8.6,3.3,7.2,4.5,6.6C5.7,6,7.1,6.5,7.7,7.7L20.4,33
				c0.6,1.2,0.1,2.6-1.1,3.2C19,36.4,18.6,36.5,18.2,36.5z"/>
			<path class="st1" d="M24.6,30.1c-0.9,0-1.7-0.5-2.1-1.3L9.8,3.4c-0.6-1.2-0.1-2.6,1.1-3.2s2.6-0.1,3.2,1.1l12.7,25.4
				c0.6,1.2,0.1,2.6-1.1,3.2C25.3,30,24.9,30.1,24.6,30.1z"/>
			<path class="st1" d="M30.9,23.8c-1,0-1.9-0.6-2.3-1.6l-6.3-19c-0.4-1.2,0.3-2.6,1.5-3c1.2-0.4,2.6,0.3,3,1.5l6.3,19
				c0.4,1.2-0.3,2.6-1.5,3C31.4,23.8,31.2,23.8,30.9,23.8z"/>
			<path class="st1" d="M37.3,17.4c-0.6,0-1.2-0.2-1.7-0.7c-0.9-0.9-0.9-2.4,0-3.4L48.3,0.7c0.9-0.9,2.4-0.9,3.4,0
				c0.9,0.9,0.9,2.4,0,3.4L38.9,16.8C38.5,17.2,37.9,17.4,37.3,17.4z"/>
		</g>
		<g>
			<path class="st0" d="M43.6,11.1c-0.6,0-1.2-0.2-1.7-0.7C41,9.5,41,8,41.9,7.1l6.3-6.3c0.9-0.9,2.4-0.9,3.4,0
				c0.9,0.9,0.9,2.4,0,3.4l-6.3,6.3C44.8,10.9,44.2,11.1,43.6,11.1z"/>
			<path class="st0" d="M18.2,49.2c-0.6,0-1.2-0.2-1.7-0.7c-0.9-0.9-0.9-2.4,0-3.4L61,0.7c0.9-0.9,2.4-0.9,3.4,0
				c0.9,0.9,0.9,2.4,0,3.4L19.9,48.5C19.5,48.9,18.8,49.2,18.2,49.2z"/>
			<path class="st0" d="M24.6,55.5c-0.6,0-1.2-0.2-1.7-0.7c-0.9-0.9-0.9-2.4,0-3.4L67.3,7c0.9-0.9,2.4-0.9,3.4,0s0.9,2.4,0,3.4
				L26.3,54.8C25.8,55.3,25.2,55.5,24.6,55.5z"/>
			<path class="st0" d="M30.9,61.8c-0.6,0-1.2-0.2-1.7-0.7c-0.9-0.9-0.9-2.4,0-3.4l41.2-41.2c0.9-0.9,2.4-0.9,3.4,0s0.9,2.4,0,3.4
				L32.6,61.1C32.1,61.6,31.5,61.8,30.9,61.8z"/>
			<path class="st0" d="M37.3,68.2c-0.6,0-1.2-0.2-1.7-0.7c-0.9-0.9-0.9-2.4,0-3.4l28.5-28.5c0.9-0.9,2.4-0.9,3.4,0s0.9,2.4,0,3.4
				L38.9,67.5C38.5,67.9,37.9,68.2,37.3,68.2z"/>
			<path class="st0" d="M11.9,42.8c-0.6,0-1.2-0.2-1.7-0.7L7,38.9c-0.9-0.9-0.9-2.4,0-3.4s2.4-0.9,3.4,0l3.2,3.2
				c0.9,0.9,0.9,2.4,0,3.4C13.1,42.6,12.5,42.8,11.9,42.8z"/>
			<path class="st0" d="M18.2,36.5c-0.6,0-1.2-0.2-1.7-0.7L0.7,19.9c-0.9-0.9-0.9-2.4,0-3.4s2.4-0.9,3.4,0l15.9,15.9
				c0.9,0.9,0.9,2.4,0,3.4C19.5,36.2,18.8,36.5,18.2,36.5z"/>
			<path class="st0" d="M24.6,30.1c-0.6,0-1.2-0.2-1.7-0.7l-19-19C2.9,9.5,2.9,8,3.9,7.1c0.9-0.9,2.4-0.9,3.4,0l19,19
				c0.9,0.9,0.9,2.4,0,3.4C25.8,29.9,25.2,30.1,24.6,30.1z"/>
			<path class="st0" d="M30.9,23.8c-0.6,0-1.2-0.2-1.7-0.7l-19-19c-0.9-0.9-0.9-2.4,0-3.4c0.9-0.9,2.4-0.9,3.4,0l19,19
				c0.9,0.9,0.9,2.4,0,3.4C32.1,23.5,31.5,23.8,30.9,23.8z"/>
			<path class="st0" d="M37.3,17.4c-0.6,0-1.2-0.2-1.7-0.7L22.9,4.1c-0.9-0.9-0.9-2.4,0-3.4c0.9-0.9,2.4-0.9,3.4,0l12.7,12.7
				c0.9,0.9,0.9,2.4,0,3.4C38.5,17.2,37.9,17.4,37.3,17.4z"/>
		</g>
	</g>
</g>
</svg>
