<?xml version="1.0" encoding="utf-8"?>
<!-- Generator: Adobe Illustrator 23.0.3, SVG Export Plug-In . SVG Version: 6.00 Build 0)  -->
<svg version="1.1" id="图层_1" xmlns="http://www.w3.org/2000/svg" xmlns:xlink="http://www.w3.org/1999/xlink" x="0px" y="0px"
	 viewBox="0 0 233.39 68.18" style="enable-background:new 0 0 233.39 68.18;" xml:space="preserve">
<style type="text/css">
	.st0{fill:#FFFFFF;}
	.st1{fill:#7ACCF3;}
</style>
<g>
	<g>
		<g>
			<path class="st0" d="M93.73,28.51c0,0.79-0.14,1.45-0.44,1.98c-0.29,0.54-0.68,0.97-1.18,1.3c-0.49,0.33-1.06,0.57-1.71,0.72
				c-0.64,0.15-1.32,0.23-2.01,0.23h-1.61v5.06h-3.24V24.37h4.93c0.73,0,1.42,0.08,2.06,0.22c0.64,0.15,1.19,0.37,1.67,0.7
				c0.48,0.33,0.85,0.75,1.12,1.27C93.59,27.09,93.73,27.74,93.73,28.51z M90.48,28.53c0-0.32-0.07-0.58-0.19-0.78
				c-0.13-0.2-0.3-0.36-0.51-0.47c-0.21-0.11-0.46-0.19-0.73-0.22c-0.27-0.04-0.55-0.06-0.85-0.06h-1.42v3.17h1.37
				c0.3,0,0.59-0.03,0.87-0.08c0.28-0.05,0.53-0.14,0.75-0.27c0.22-0.12,0.39-0.29,0.52-0.5C90.42,29.11,90.48,28.84,90.48,28.53z"
				/>
			<path class="st0" d="M103.38,37.81l-1.05-2.64h-5.2l-0.99,2.64h-3.53l5.63-13.43h3.15l5.58,13.43H103.38z M99.78,27.96
				l-1.71,4.61h3.38L99.78,27.96z"/>
			<path class="st0" d="M120.91,31.04c0,1-0.18,1.93-0.52,2.76c-0.35,0.83-0.83,1.55-1.45,2.14c-0.62,0.59-1.35,1.05-2.21,1.38
				c-0.85,0.32-1.77,0.48-2.77,0.48c-1,0-1.92-0.16-2.76-0.48c-0.85-0.33-1.58-0.79-2.2-1.38c-0.62-0.6-1.1-1.31-1.45-2.14
				c-0.35-0.83-0.52-1.76-0.52-2.76c0-1.03,0.17-1.94,0.52-2.77c0.35-0.82,0.83-1.52,1.45-2.1c0.62-0.58,1.35-1.02,2.2-1.33
				c0.84-0.31,1.76-0.47,2.76-0.47c1,0,1.92,0.16,2.77,0.47c0.85,0.31,1.59,0.75,2.21,1.33c0.62,0.57,1.1,1.27,1.45,2.1
				C120.73,29.1,120.91,30.01,120.91,31.04z M117.61,31.04c0-0.56-0.09-1.07-0.27-1.55c-0.18-0.48-0.43-0.89-0.75-1.24
				c-0.32-0.34-0.7-0.61-1.15-0.81c-0.45-0.19-0.94-0.29-1.48-0.29s-1.03,0.1-1.48,0.29c-0.44,0.2-0.83,0.47-1.15,0.81
				c-0.33,0.35-0.58,0.76-0.75,1.24c-0.18,0.48-0.26,0.99-0.26,1.55c0,0.57,0.09,1.1,0.27,1.59c0.18,0.49,0.43,0.9,0.75,1.25
				c0.32,0.35,0.7,0.62,1.14,0.82c0.45,0.19,0.94,0.3,1.48,0.3s1.03-0.1,1.48-0.3c0.45-0.2,0.83-0.47,1.15-0.82
				c0.32-0.35,0.57-0.77,0.76-1.25C117.52,32.14,117.61,31.61,117.61,31.04z"/>
			<path class="st0" d="M130.64,27.14v2.77h5.2v2.67h-5.2v5.22h-3.21V24.37h8.84v2.77H130.64z"/>
			<path class="st0" d="M151.76,31.04c0,1-0.17,1.93-0.52,2.76c-0.35,0.83-0.83,1.55-1.45,2.14c-0.62,0.59-1.35,1.05-2.21,1.38
				c-0.85,0.32-1.78,0.48-2.77,0.48c-1,0-1.92-0.16-2.76-0.48c-0.85-0.33-1.58-0.79-2.2-1.38c-0.62-0.6-1.1-1.31-1.45-2.14
				c-0.35-0.83-0.53-1.76-0.53-2.76c0-1.03,0.18-1.94,0.53-2.77c0.35-0.82,0.83-1.52,1.45-2.1c0.62-0.58,1.35-1.02,2.2-1.33
				c0.85-0.31,1.77-0.47,2.76-0.47c0.99,0,1.92,0.16,2.77,0.47c0.85,0.31,1.59,0.75,2.21,1.33c0.62,0.57,1.1,1.27,1.45,2.1
				C151.59,29.1,151.76,30.01,151.76,31.04z M148.47,31.04c0-0.56-0.09-1.07-0.27-1.55c-0.18-0.48-0.43-0.89-0.75-1.24
				c-0.32-0.34-0.7-0.61-1.15-0.81c-0.45-0.19-0.94-0.29-1.48-0.29c-0.54,0-1.03,0.1-1.48,0.29c-0.44,0.2-0.83,0.47-1.15,0.81
				c-0.33,0.35-0.57,0.76-0.75,1.24c-0.17,0.48-0.26,0.99-0.26,1.55c0,0.57,0.09,1.1,0.27,1.59c0.18,0.49,0.43,0.9,0.75,1.25
				c0.32,0.35,0.7,0.62,1.14,0.82c0.44,0.19,0.93,0.3,1.48,0.3c0.54,0,1.03-0.1,1.48-0.3c0.45-0.2,0.83-0.47,1.15-0.82
				c0.32-0.35,0.58-0.77,0.76-1.25C148.38,32.14,148.47,31.61,148.47,31.04z"/>
			<path class="st0" d="M164.32,34.67c-0.26,0.65-0.64,1.2-1.13,1.66c-0.5,0.46-1.09,0.82-1.78,1.08c-0.7,0.26-1.47,0.39-2.32,0.39
				c-0.86,0-1.64-0.13-2.33-0.39c-0.69-0.26-1.27-0.62-1.75-1.08c-0.48-0.47-0.85-1.02-1.11-1.66c-0.26-0.64-0.39-1.36-0.39-2.15
				v-8.15h3.14v7.89c0,0.36,0.05,0.69,0.14,1.02c0.09,0.32,0.23,0.61,0.42,0.86c0.19,0.25,0.45,0.45,0.76,0.6
				c0.32,0.15,0.7,0.22,1.14,0.22c0.44,0,0.82-0.07,1.13-0.22c0.32-0.15,0.57-0.35,0.77-0.6c0.2-0.26,0.34-0.54,0.42-0.86
				c0.09-0.32,0.13-0.66,0.13-1.02v-7.89h3.16v8.15C164.72,33.31,164.58,34.03,164.32,34.67z"/>
			<path class="st0" d="M175.59,37.81l-5.4-8.79h-0.06l0.08,8.79h-3.15V24.37h3.7l5.39,8.76h0.06l-0.08-8.76h3.15v13.43H175.59z"/>
			<path class="st0" d="M193.67,31.05c0,1.18-0.22,2.19-0.66,3.04c-0.44,0.86-1.01,1.56-1.72,2.11c-0.71,0.55-1.52,0.95-2.42,1.22
				c-0.9,0.26-1.8,0.39-2.73,0.39h-5.01V24.37h4.86c0.95,0,1.88,0.11,2.81,0.33c0.93,0.22,1.75,0.59,2.47,1.1
				c0.72,0.51,1.3,1.19,1.75,2.06C193.45,28.72,193.67,29.79,193.67,31.05z M190.29,31.05c0-0.76-0.12-1.39-0.37-1.89
				c-0.25-0.5-0.58-0.9-0.98-1.2c-0.41-0.29-0.88-0.51-1.4-0.64c-0.53-0.12-1.07-0.19-1.62-0.19h-1.61V35h1.54
				c0.58,0,1.14-0.07,1.68-0.2c0.54-0.13,1.01-0.35,1.42-0.65c0.41-0.31,0.74-0.72,0.98-1.22C190.17,32.42,190.29,31.8,190.29,31.05
				z"/>
			<path class="st0" d="M195.56,37.81V24.37h9.03v2.74h-5.9v2.54h5.58v2.6h-5.58v2.78h6.24v2.77H195.56z"/>
			<path class="st0" d="M214.34,37.81l-2.91-5.33h-1.11v5.33h-3.16V24.37h5.12c0.65,0,1.28,0.07,1.89,0.2
				c0.61,0.13,1.16,0.36,1.65,0.67c0.49,0.32,0.88,0.73,1.17,1.25c0.29,0.52,0.44,1.16,0.44,1.93c0,0.92-0.25,1.68-0.74,2.29
				c-0.49,0.62-1.18,1.07-2.05,1.33l3.51,5.75H214.34z M214.21,28.49c0-0.32-0.07-0.57-0.2-0.77c-0.14-0.2-0.31-0.35-0.52-0.45
				c-0.21-0.11-0.44-0.18-0.7-0.21c-0.26-0.04-0.51-0.06-0.75-0.06h-1.74v3.13h1.54c0.27,0,0.54-0.02,0.82-0.07
				c0.28-0.04,0.54-0.12,0.76-0.24c0.23-0.11,0.42-0.28,0.56-0.49C214.14,29.11,214.21,28.83,214.21,28.49z"/>
			<path class="st0" d="M221.54,29.4h-2.34l1.34-5.03h2.69L221.54,29.4z"/>
			<path class="st0" d="M231.25,28.02c-0.27-0.34-0.61-0.61-1.04-0.81c-0.43-0.2-0.84-0.3-1.24-0.3c-0.2,0-0.41,0.02-0.62,0.06
				c-0.21,0.03-0.4,0.1-0.57,0.2c-0.17,0.1-0.31,0.24-0.43,0.4c-0.11,0.16-0.17,0.37-0.17,0.62c0,0.21,0.05,0.4,0.14,0.54
				c0.09,0.15,0.22,0.27,0.4,0.38c0.17,0.1,0.38,0.21,0.62,0.29c0.24,0.09,0.51,0.19,0.81,0.28c0.43,0.15,0.88,0.31,1.35,0.48
				c0.47,0.17,0.9,0.41,1.28,0.69c0.38,0.29,0.7,0.65,0.96,1.07c0.25,0.43,0.38,0.96,0.38,1.6c0,0.73-0.13,1.37-0.41,1.9
				c-0.27,0.53-0.63,0.98-1.09,1.33c-0.46,0.35-0.98,0.61-1.57,0.77c-0.59,0.17-1.2,0.26-1.82,0.26c-0.91,0-1.8-0.16-2.65-0.48
				c-0.86-0.32-1.57-0.77-2.13-1.36l2.03-2.06c0.31,0.39,0.72,0.71,1.23,0.97c0.51,0.26,1.02,0.38,1.53,0.38
				c0.23,0,0.45-0.02,0.67-0.07c0.22-0.05,0.41-0.12,0.57-0.23c0.16-0.11,0.29-0.25,0.39-0.43c0.1-0.18,0.15-0.4,0.15-0.65
				c0-0.24-0.06-0.44-0.18-0.61c-0.12-0.17-0.29-0.32-0.51-0.46c-0.22-0.14-0.5-0.27-0.83-0.38c-0.33-0.11-0.71-0.24-1.13-0.37
				c-0.41-0.13-0.81-0.29-1.2-0.47c-0.39-0.18-0.74-0.41-1.05-0.7c-0.31-0.28-0.56-0.62-0.74-1.03c-0.19-0.4-0.28-0.89-0.28-1.47
				c0-0.72,0.14-1.32,0.43-1.83c0.29-0.5,0.67-0.92,1.14-1.24c0.47-0.32,1-0.56,1.59-0.71c0.59-0.15,1.18-0.23,1.79-0.23
				c0.72,0,1.46,0.14,2.21,0.4c0.75,0.26,1.41,0.65,1.98,1.17L231.25,28.02z"/>
		</g>
		<g>
			<path class="st0" d="M96.75,58.73c-1.13,0.51-2.42,0.77-3.89,0.77c-1.34,0-2.57-0.22-3.71-0.66c-1.13-0.44-2.12-1.06-2.95-1.87
				c-0.83-0.8-1.48-1.77-1.96-2.89c-0.47-1.13-0.71-2.37-0.71-3.72c0-1.39,0.24-2.64,0.72-3.77c0.48-1.13,1.15-2.08,1.99-2.87
				c0.85-0.79,1.85-1.4,2.99-1.83c1.14-0.43,2.37-0.64,3.69-0.64c1.22,0,2.42,0.22,3.61,0.65c1.19,0.43,2.14,1.07,2.88,1.9
				l-2.84,2.84c-0.39-0.54-0.9-0.94-1.54-1.2c-0.63-0.26-1.28-0.39-1.96-0.39c-0.73,0-1.4,0.13-2.02,0.4
				c-0.61,0.27-1.14,0.64-1.58,1.12c-0.44,0.47-0.78,1.03-1.02,1.67c-0.24,0.64-0.37,1.35-0.37,2.12c0,0.78,0.13,1.5,0.37,2.16
				c0.24,0.65,0.58,1.21,1.01,1.68c0.43,0.46,0.95,0.82,1.55,1.09c0.6,0.26,1.26,0.39,1.98,0.39c0.83,0,1.56-0.16,2.18-0.49
				c0.62-0.32,1.11-0.75,1.49-1.27l2.91,2.74C98.82,57.52,97.87,58.22,96.75,58.73z"/>
			<path class="st0" d="M112.78,59.51v-7.63h-7.11v7.63h-4.41V41.25h4.41v6.91h7.11v-6.91h4.41v18.25H112.78z"/>
			<path class="st0" d="M133.68,59.51l-1.42-3.59h-7.06l-1.34,3.59h-4.79l7.66-18.25H131l7.58,18.25H133.68z M128.78,46.13
				l-2.32,6.26h4.59L128.78,46.13z"/>
			<path class="st0" d="M140.47,59.51V41.25h4.43v14.41h7.06v3.85H140.47z"/>
			<path class="st0" d="M154.04,59.51V41.25h4.43v14.41h7.07v3.85H154.04z"/>
			<path class="st0" d="M167.98,59.51V41.25h12.27v3.71h-8.01v3.46h7.58v3.53h-7.58v3.79h8.48v3.76H167.98z"/>
			<path class="st0" d="M194.6,59.51l-7.35-11.93h-0.08l0.1,11.93H183V41.25h5.03l7.32,11.91h0.08l-0.1-11.91h4.28v18.25H194.6z"/>
			<path class="st0" d="M215.12,59.09c-1.13,0.28-2.37,0.42-3.71,0.42c-1.39,0-2.67-0.22-3.84-0.67c-1.17-0.44-2.17-1.06-3.01-1.86
				c-0.84-0.8-1.5-1.76-1.97-2.88c-0.48-1.12-0.71-2.36-0.71-3.73c0-1.39,0.24-2.65,0.72-3.77c0.48-1.13,1.15-2.09,1.99-2.88
				c0.85-0.79,1.85-1.4,2.99-1.82c1.15-0.43,2.38-0.64,3.7-0.64c1.37,0,2.65,0.21,3.82,0.63c1.18,0.41,2.13,0.98,2.86,1.68
				l-2.65,3.01c-0.41-0.47-0.95-0.86-1.62-1.16c-0.67-0.31-1.43-0.45-2.28-0.45c-0.73,0-1.41,0.13-2.03,0.41
				c-0.62,0.27-1.16,0.64-1.62,1.12c-0.46,0.49-0.81,1.06-1.07,1.72c-0.25,0.66-0.38,1.38-0.38,2.17c0,0.8,0.12,1.53,0.34,2.21
				c0.23,0.67,0.57,1.24,1.02,1.72c0.45,0.48,1.01,0.86,1.67,1.13c0.66,0.27,1.41,0.41,2.26,0.41c0.49,0,0.96-0.04,1.4-0.11
				c0.44-0.07,0.85-0.2,1.22-0.36V52.2h-3.31v-3.38h7.15v9.19C217.25,58.45,216.26,58.81,215.12,59.09z"/>
			<path class="st0" d="M220.48,59.51V41.25h12.27v3.71h-8.02v3.46h7.58v3.53h-7.58v3.79h8.48v3.76H220.48z"/>
		</g>
		<g>
			<path class="st0" d="M130.97,20.52c-1.51,0.03-2.23-0.64-2.16-2.01v-5.07c-0.1,0.1-0.23,0.25-0.4,0.45
				c-0.27,0.3-0.49,0.52-0.65,0.66c-0.13-0.51-0.3-0.98-0.5-1.4c1.28-1.24,2.26-2.67,2.97-4.27l1.51,0.15
				c-0.03,0.1-0.1,0.24-0.2,0.41c-0.04,0.13-0.15,0.37-0.36,0.7h6.93c0,1.98-0.05,3.91-0.15,5.78c0,1.48-0.65,2.18-1.96,2.11
				c-0.47,0.03-1.06,0.05-1.76,0.05c-0.03-0.1-0.08-0.25-0.15-0.46c-0.07-0.37-0.13-0.65-0.2-0.85h-3.77v1.6
				c-0.07,0.74,0.33,1.09,1.2,1.06h5.33c0.74,0.04,1.16-0.24,1.26-0.8c0.1-0.44,0.17-0.96,0.2-1.56c0.17,0.04,0.4,0.1,0.7,0.2
				c0.3,0.1,0.52,0.17,0.65,0.2c-0.07,0.6-0.17,1.2-0.3,1.81c-0.2,0.87-0.93,1.29-2.21,1.26H130.97z M130.42,11.37
				c-0.27,0.43-0.6,0.89-1.01,1.35h5.28v4.02h0.91c0.67,0.03,1.02-0.3,1.05-1c0.07-1.38,0.1-2.83,0.1-4.37H130.42z M130.12,13.88
				v1.71h3.27v-1.71H130.12z"/>
			<path class="st0" d="M141.01,12.47v-1.21h1.46V8.86h1.26v2.41h1.2v1.21h-1.2v1.16c0.03,0.03,0.08,0.08,0.15,0.15
				c0.37,0.3,0.82,0.69,1.36,1.15l-0.7,1.06l-0.8-0.9v5.83h-1.26v-5.78c-0.37,1.04-0.81,2-1.31,2.87c-0.04-0.16-0.1-0.45-0.2-0.85
				c-0.07-0.44-0.14-0.74-0.2-0.91c0.64-0.97,1.19-2.22,1.66-3.77H141.01z M152.32,20.72c-1.27-0.5-2.39-1.09-3.37-1.76
				c-0.77,0.63-1.98,1.29-3.62,1.96c-0.2-0.4-0.45-0.81-0.75-1.21c1.47-0.43,2.63-0.98,3.47-1.65c-0.64-0.74-1.19-1.69-1.66-2.87
				l1.11-0.45c0.44,0.97,0.92,1.77,1.46,2.42c0.5-0.54,0.96-1.38,1.36-2.52l1.21,0.4c-0.44,1.27-0.99,2.28-1.66,3.02
				c0.77,0.6,1.86,1.09,3.27,1.46c-0.07,0.13-0.2,0.33-0.4,0.6C152.55,20.38,152.42,20.58,152.32,20.72z M145.74,15.44
				c-0.23-0.34-0.49-0.66-0.75-0.96c0.84-0.64,1.69-1.44,2.56-2.41l0.9,0.8C147.48,13.92,146.58,14.77,145.74,15.44z M145.44,11.82
				v-1.21h3.11c-0.13-0.51-0.3-1.03-0.5-1.56l1.31-0.2l0.55,1.76h2.96v1.21H145.44z M152.27,15.29c-0.91-0.87-1.81-1.68-2.71-2.41
				l0.81-0.8c0.64,0.51,1.47,1.2,2.51,2.11c0.07,0.07,0.12,0.11,0.15,0.15L152.27,15.29z"/>
			<path class="st0" d="M161.25,13.28l-0.1-0.05c0,0.87-0.04,1.77-0.1,2.71c-0.04,1.03-0.55,1.58-1.56,1.61l-1.41,0.05
				c-0.03-0.16-0.1-0.47-0.2-0.9c-0.03-0.13-0.05-0.24-0.05-0.3c0.47,0.03,0.87,0.05,1.21,0.05c0.5,0.04,0.79-0.23,0.86-0.81
				c0-0.1,0-0.27,0-0.5c0.03-0.37,0.05-0.63,0.05-0.8h-2.76v4.27c-0.03,0.57,0.25,0.85,0.85,0.85h1.61c0.57,0,0.91-0.21,1-0.65
				c0-0.07,0.02-0.17,0.05-0.31c0.04-0.1,0.09-0.4,0.15-0.9c0.07,0.04,0.19,0.07,0.35,0.1c0.2,0.1,0.5,0.21,0.91,0.31
				c-0.03,0.27-0.12,0.63-0.25,1.1c-0.03,0.17-0.07,0.28-0.1,0.36c-0.2,0.77-0.84,1.13-1.91,1.1h-2.11
				c-1.24,0.03-1.84-0.55-1.81-1.75v-5.17c-0.03,0.03-0.1,0.08-0.2,0.15c-0.07,0.07-0.22,0.18-0.45,0.35
				c-0.17-0.43-0.35-0.84-0.55-1.21c1.54-1.07,2.7-2.42,3.47-4.07l1.36,0.1c-0.03,0.07-0.07,0.15-0.1,0.25
				c-0.07,0.14-0.12,0.24-0.15,0.3c0.57,0.51,1.31,1.23,2.21,2.16c0.3,0.3,0.52,0.52,0.65,0.65L161.25,13.28z M158.69,10.51
				c-0.61,0.97-1.36,1.86-2.26,2.67h4.72c-0.27-0.34-0.67-0.79-1.2-1.36C159.41,11.25,158.99,10.82,158.69,10.51z M162.46,17.85
				v-7.59h1.26v7.59H162.46z M163.01,20.72c-0.07-0.41-0.15-0.82-0.25-1.26c0.54,0,1.06,0,1.56,0c0.57,0,0.84-0.27,0.8-0.81V8.91
				h1.31v10.1c0.06,1.1-0.47,1.67-1.61,1.71C164.22,20.72,163.61,20.72,163.01,20.72z"/>
			<path class="st0" d="M169.48,17.35c-0.13-0.1-0.37-0.24-0.7-0.4c-0.2-0.14-0.35-0.24-0.45-0.31c0.67-1.04,1.24-2.14,1.71-3.32
				l1.21,0.5C170.74,14.94,170.15,16.11,169.48,17.35z M179.58,17.2c-0.47-0.97-0.94-1.9-1.41-2.76c0,0.44-0.02,1.06-0.05,1.86
				c0,0.83-0.02,1.44-0.05,1.81c-0.03,1.64-0.84,2.44-2.41,2.41c-0.4,0-0.93,0.02-1.61,0.05c-0.3,0-0.49,0-0.55,0
				c-0.06-0.44-0.17-0.89-0.3-1.36c0.47,0.04,1.16,0.05,2.06,0.05c0.97,0.1,1.46-0.4,1.46-1.51c0-0.43,0.03-1.17,0.1-2.21
				c0.03-1.47,0.07-2.56,0.1-3.26h-3.07v0.05c0.07,4.19-1.41,7.02-4.42,8.49c-0.1-0.14-0.29-0.35-0.55-0.65
				c-0.2-0.2-0.34-0.35-0.4-0.45c1.57-0.94,2.59-1.87,3.06-2.81c0.54-0.87,0.84-2.38,0.91-4.52v-0.1h-3.52v-1.31h3.62
				c0-0.27,0.02-0.65,0.05-1.15c0-0.44,0-0.76,0-0.96h1.45c-0.03,0.2-0.05,0.56-0.05,1.05c-0.03,0.47-0.05,0.82-0.05,1.06h4.37
				l-0.1,2.87l0.8-0.4c0.6,1.08,1.19,2.13,1.76,3.17L179.58,17.2z"/>
			<path class="st0" d="M192.01,20.52c-2.85-1.51-4.52-3.68-5.03-6.53c-0.5,2.81-2.21,5.04-5.12,6.68
				c-0.27-0.44-0.59-0.85-0.96-1.25c3.22-1.64,4.94-4.15,5.18-7.54c0.06-0.8,0.1-1.81,0.1-3.01h1.51c-0.03,0.1-0.05,0.4-0.05,0.9
				c-0.03,0.4-0.05,0.7-0.05,0.91c0.3,4.35,2.11,7.22,5.43,8.59C192.58,19.73,192.25,20.14,192.01,20.52z"/>
			<path class="st0" d="M194.17,12.47v-1.25h1.36V8.86h1.2v2.36h1.06v1.25h-1.06v2.11c0.4-0.1,0.79-0.2,1.16-0.3
				c0,0.6,0.02,1.02,0.05,1.25l-1.21,0.35v3.27c0.03,1.01-0.4,1.51-1.3,1.51c-0.3,0.04-0.69,0.05-1.16,0.05
				c-0.03-0.37-0.1-0.81-0.2-1.31c0.24,0.03,0.52,0.05,0.85,0.05c0.4,0,0.6-0.18,0.6-0.56V16.3c-0.2,0.03-0.49,0.1-0.86,0.2
				c-0.23,0.07-0.4,0.12-0.5,0.15l-0.15-1.41c0.07,0,0.17-0.01,0.3-0.05c0.27-0.07,0.67-0.17,1.21-0.3v-2.41H194.17z M198.09,17.35
				l-0.65-1.11c0.24-0.17,0.59-0.42,1.06-0.76c0.67-0.47,1.16-0.82,1.46-1.05V8.96h1.25v5.28c0,1.81-0.18,3.15-0.55,4.02
				c-0.37,0.9-1.12,1.81-2.26,2.71c-0.1-0.1-0.31-0.32-0.6-0.65c-0.2-0.17-0.34-0.29-0.4-0.35c1.61-1.04,2.44-2.38,2.51-4.02
				L198.09,17.35z M198.85,13.83c-0.07-0.2-0.17-0.52-0.31-0.96c-0.33-0.97-0.57-1.66-0.7-2.06l0.95-0.3
				c0.24,0.6,0.59,1.52,1.06,2.76c0.03,0.1,0.05,0.17,0.05,0.2L198.85,13.83z M205.53,17.15c-0.27-0.21-0.7-0.51-1.3-0.91
				c-0.3-0.2-0.52-0.35-0.65-0.45v3.11c-0.03,0.34,0.13,0.51,0.5,0.51h0.35c0.33,0,0.54-0.18,0.6-0.55c0.07-0.47,0.1-0.92,0.1-1.36
				c0.17,0.07,0.47,0.19,0.9,0.35c0.1,0.04,0.17,0.05,0.2,0.05c-0.03,0.57-0.08,1.06-0.15,1.45c-0.17,0.84-0.69,1.24-1.56,1.2h-0.75
				c-0.97,0.04-1.44-0.42-1.41-1.35V8.96h1.21v4.17c0.43-0.74,0.9-1.61,1.41-2.62l1,0.55c-0.64,1.17-1.15,2.11-1.56,2.81l-0.85-0.5
				v1.05c0.13,0.1,0.35,0.23,0.65,0.4c0.84,0.53,1.49,0.95,1.96,1.26L205.53,17.15z"/>
			<path class="st0" d="M213.51,19.81c-0.2-0.27-0.44-0.56-0.71-0.86v1.4h-1.31v-0.75h-2.41v0.85h-1.25v-5.87h1.66V8.91h1.35v2.16
				h2.26v1.21h-2.26v2.32h1.96v4.22c1.07-0.64,1.82-1.17,2.26-1.61c-0.2-0.94-0.37-2.16-0.5-3.67l-1.51,0.25l-0.2-1.2l1.61-0.2v-0.1
				c-0.1-1.17-0.15-2.31-0.15-3.42h1.31c0,1.11,0.05,2.22,0.15,3.36l3.52-0.45l0.1,1.11l-3.57,0.51c0.1,1.1,0.22,2.04,0.35,2.81
				c0.74-0.73,1.39-1.59,1.96-2.56l1.1,0.7c-0.83,1.31-1.74,2.41-2.71,3.32c0.2,0.54,0.43,0.99,0.7,1.36c0.2,0.3,0.4,0.45,0.61,0.45
				c0.26,0,0.42-0.18,0.45-0.56c0.1-0.44,0.18-1,0.25-1.71c0.37,0.13,0.75,0.29,1.16,0.45c-0.04,0.13-0.07,0.33-0.1,0.6
				c-0.13,0.73-0.23,1.19-0.3,1.36c-0.17,0.8-0.6,1.2-1.31,1.2c-0.87,0.07-1.57-0.47-2.11-1.61c-0.13-0.2-0.25-0.42-0.35-0.66
				C214.92,19.02,214.24,19.45,213.51,19.81z M209.09,15.75v2.81h2.41v-2.81H209.09z M217.98,11.47c-0.53-0.57-1.1-1.07-1.71-1.51
				l0.75-0.86c0.61,0.44,1.21,0.93,1.81,1.46L217.98,11.47z"/>
			<path class="st0" d="M221.64,11.82V9.81h5.02c-0.03-0.1-0.07-0.26-0.1-0.45c-0.07-0.17-0.1-0.29-0.1-0.36l1.51-0.15
				c0.07,0.17,0.13,0.46,0.2,0.85c0,0.03,0,0.07,0,0.1h4.88v2.01h-1.11v0.65h-2.06v0.76h2.36v0.76h-2.36v0.7h3.31v0.85h-2.86
				c0.91,0.61,1.93,1.03,3.06,1.26c-0.03,0.1-0.12,0.28-0.25,0.55c-0.1,0.24-0.19,0.41-0.25,0.55c-0.7-0.27-1.31-0.52-1.81-0.75
				v1.86h-1.21v-1.76h-4.97v1.86h-1.21v-1.96c-0.57,0.3-1.21,0.57-1.91,0.8c-0.03-0.1-0.11-0.27-0.25-0.51
				c-0.1-0.27-0.18-0.45-0.25-0.55c1.21-0.3,2.24-0.75,3.11-1.36h-2.86v-0.85h3.26v-0.7h-2.31v-0.76h2.31v-0.76h-2.01v-0.65H221.64z
				 M232.44,20.97c-2.04-0.63-3.73-1.12-5.08-1.46h-0.05c-0.6,0.7-2.29,1.21-5.07,1.51c-0.23-0.5-0.42-0.87-0.55-1.11
				c2.58-0.16,4.11-0.48,4.57-0.95c0.34-0.31,0.52-0.74,0.55-1.31h1.26c0,0.37-0.05,0.7-0.15,1l5.02,1.25L232.44,20.97z
				 M222.94,10.72v0.96h1.86v-0.65h1.26v0.65h2.56v-0.65h1.26v0.65h1.91v-0.96H222.94z M225.96,15.54
				c-0.34,0.34-0.67,0.62-1.01,0.86h4.87c-0.33-0.24-0.67-0.52-1-0.86H225.96z M226.06,12.47v0.76h2.56v-0.76H226.06z M226.06,13.99
				v0.7h2.56v-0.7H226.06z"/>
		</g>
		<g>
			<path class="st0" d="M83.78,20.72v-2.29l4.51-4.07c0.28-0.27,0.51-0.55,0.68-0.83c0.17-0.28,0.26-0.6,0.26-0.94
				c0-0.41-0.13-0.75-0.39-1c-0.26-0.26-0.61-0.39-1.04-0.39c-0.46,0-0.83,0.16-1.12,0.49c-0.29,0.32-0.46,0.74-0.51,1.26
				l-2.63-0.36c0.06-0.58,0.22-1.12,0.48-1.57c0.25-0.46,0.58-0.85,0.97-1.18c0.39-0.32,0.84-0.57,1.35-0.73
				c0.51-0.17,1.04-0.26,1.61-0.26c0.53,0,1.05,0.07,1.55,0.21c0.5,0.14,0.95,0.36,1.34,0.65c0.39,0.3,0.71,0.67,0.94,1.12
				c0.23,0.44,0.35,0.97,0.35,1.56c0,0.42-0.05,0.79-0.16,1.12c-0.11,0.33-0.26,0.64-0.45,0.92c-0.19,0.28-0.41,0.55-0.65,0.79
				c-0.24,0.24-0.5,0.48-0.76,0.73l-2.68,2.38h4.72v2.38H83.78z"/>
			<path class="st0" d="M102.43,14.9c0,0.8-0.08,1.56-0.24,2.27c-0.16,0.72-0.41,1.36-0.76,1.9c-0.35,0.55-0.81,0.98-1.36,1.31
				c-0.56,0.32-1.23,0.48-2.03,0.48c-0.8,0-1.47-0.16-2.04-0.48c-0.56-0.32-1.02-0.76-1.38-1.31c-0.36-0.55-0.61-1.18-0.77-1.9
				c-0.16-0.72-0.24-1.48-0.24-2.27c0-0.8,0.08-1.55,0.24-2.26c0.16-0.72,0.41-1.34,0.77-1.88c0.36-0.53,0.81-0.96,1.38-1.28
				C96.57,9.16,97.25,9,98.04,9c0.79,0,1.47,0.16,2.03,0.48c0.56,0.32,1.01,0.75,1.36,1.28c0.35,0.54,0.6,1.16,0.76,1.88
				C102.35,13.35,102.43,14.1,102.43,14.9z M99.7,14.9c0-0.35-0.02-0.74-0.06-1.16c-0.04-0.43-0.13-0.82-0.24-1.19
				c-0.12-0.37-0.28-0.68-0.5-0.93c-0.22-0.25-0.5-0.37-0.85-0.37c-0.35,0-0.64,0.12-0.86,0.37c-0.22,0.25-0.39,0.56-0.52,0.93
				c-0.12,0.36-0.2,0.76-0.25,1.19c-0.04,0.42-0.06,0.81-0.06,1.16c0,0.36,0.02,0.76,0.06,1.19c0.04,0.42,0.13,0.83,0.25,1.19
				c0.12,0.36,0.29,0.67,0.52,0.92c0.22,0.25,0.51,0.37,0.86,0.37c0.35,0,0.63-0.12,0.85-0.37c0.22-0.25,0.39-0.56,0.5-0.92
				c0.11-0.37,0.2-0.77,0.24-1.19C99.67,15.66,99.7,15.26,99.7,14.9z"/>
			<path class="st0" d="M107.07,20.87v-8.72l-2.21,1.71l-1.46-2L107.3,9h2.57v11.87H107.07z"/>
			<g>
				<path class="st0" d="M116.58,16.66c-0.13,0.03-0.27,0.06-0.4,0.08c-0.13,0.02-0.27,0.03-0.42,0.03c-0.56,0-1.06-0.1-1.51-0.3
					c-0.46-0.2-0.84-0.47-1.17-0.82c-0.32-0.34-0.57-0.75-0.75-1.22s-0.27-0.97-0.27-1.51c0-0.61,0.11-1.16,0.34-1.66
					c0.23-0.49,0.54-0.92,0.93-1.27c0.39-0.35,0.86-0.63,1.39-0.82c0.53-0.2,1.11-0.29,1.73-0.29c0.61,0,1.18,0.1,1.72,0.29
					c0.54,0.19,1,0.47,1.4,0.82c0.39,0.35,0.7,0.78,0.93,1.27c0.23,0.49,0.34,1.05,0.34,1.66c0,0.42-0.04,0.81-0.12,1.16
					c-0.08,0.35-0.18,0.68-0.31,0.99c-0.13,0.31-0.28,0.61-0.45,0.89c-0.17,0.28-0.35,0.57-0.54,0.87l-2.58,4.03h-3.05L116.58,16.66
					z M114.57,13.03c0,0.53,0.17,0.97,0.52,1.32c0.35,0.35,0.81,0.52,1.37,0.52c0.57,0,1.02-0.17,1.37-0.52
					c0.35-0.35,0.52-0.79,0.52-1.32c0-0.53-0.17-0.97-0.52-1.32c-0.35-0.35-0.81-0.52-1.37-0.52c-0.57,0-1.02,0.17-1.37,0.52
					C114.74,12.06,114.57,12.5,114.57,13.03z"/>
			</g>
		</g>
	</g>
	<g>
		<g>
			<path class="st1" d="M30.92,61.84c-0.79,0-1.55-0.39-2.01-1.1c-0.7-1.11-0.38-2.58,0.73-3.28l34.88-22.2
				c1.11-0.7,2.58-0.38,3.29,0.73c0.7,1.11,0.38,2.58-0.74,3.28L32.2,61.47C31.8,61.72,31.36,61.84,30.92,61.84z"/>
			<path class="st1" d="M24.58,55.5c-0.73,0-1.46-0.34-1.92-0.97c-0.78-1.06-0.54-2.55,0.51-3.33l47.56-34.88
				c1.06-0.78,2.55-0.55,3.33,0.51c0.78,1.06,0.55,2.55-0.51,3.32L25.98,55.04C25.56,55.35,25.07,55.5,24.58,55.5z"/>
			<path class="st1" d="M18.24,49.16c-0.73,0-1.44-0.33-1.91-0.95c-0.79-1.05-0.57-2.54,0.48-3.33L67.54,6.82
				c1.05-0.79,2.54-0.58,3.33,0.48c0.79,1.05,0.58,2.54-0.48,3.33L19.66,48.68C19.23,49,18.73,49.16,18.24,49.16z"/>
			<path class="st1" d="M11.89,42.81c-0.93,0-1.8-0.54-2.19-1.44l-9.51-22.2c-0.52-1.21,0.04-2.61,1.25-3.13
				c1.21-0.52,2.6,0.04,3.13,1.25l9.51,22.2c0.52,1.21-0.05,2.61-1.25,3.12C12.52,42.75,12.21,42.81,11.89,42.81z"/>
			<path class="st1" d="M18.24,36.47c-0.87,0-1.71-0.48-2.13-1.32L3.42,9.79C2.84,8.61,3.31,7.18,4.48,6.6
				c1.17-0.59,2.61-0.11,3.19,1.06l12.68,25.37c0.59,1.17,0.11,2.61-1.07,3.19C18.95,36.39,18.59,36.47,18.24,36.47z"/>
			<path class="st1" d="M24.58,30.13c-0.87,0-1.71-0.49-2.13-1.32L9.76,3.44c-0.59-1.17-0.11-2.6,1.06-3.19
				c1.17-0.59,2.61-0.11,3.19,1.06L26.7,26.68c0.59,1.17,0.11,2.61-1.07,3.19C25.3,30.05,24.93,30.13,24.58,30.13z"/>
			<path class="st1" d="M30.92,23.79c-1,0-1.93-0.63-2.26-1.63L22.32,3.13c-0.42-1.25,0.26-2.59,1.5-3.01
				c1.25-0.42,2.59,0.26,3.01,1.5l6.34,19.03c0.41,1.25-0.26,2.6-1.5,3.01C31.42,23.75,31.17,23.79,30.92,23.79z"/>
			<path class="st1" d="M37.26,17.44c-0.61,0-1.22-0.23-1.68-0.69c-0.93-0.93-0.93-2.43,0-3.36L48.26,0.7
				c0.93-0.93,2.44-0.93,3.36,0c0.93,0.93,0.93,2.43,0,3.36L38.94,16.75C38.48,17.21,37.87,17.44,37.26,17.44z"/>
		</g>
		<g>
			<path class="st0" d="M43.6,11.1c-0.61,0-1.22-0.23-1.68-0.69c-0.93-0.93-0.93-2.44,0-3.36l6.34-6.34c0.93-0.93,2.44-0.93,3.36,0
				c0.93,0.93,0.93,2.43,0,3.36l-6.34,6.34C44.82,10.87,44.21,11.1,43.6,11.1z"/>
			<path class="st0" d="M18.23,49.16c-0.61,0-1.22-0.23-1.68-0.7c-0.93-0.93-0.93-2.44,0-3.36L60.95,0.7c0.93-0.93,2.44-0.93,3.36,0
				c0.93,0.93,0.93,2.43,0,3.36L19.92,48.46C19.45,48.92,18.84,49.16,18.23,49.16z"/>
			<path class="st0" d="M24.58,55.5c-0.61,0-1.22-0.23-1.68-0.7c-0.93-0.93-0.93-2.44,0-3.37l44.4-44.39c0.93-0.93,2.43-0.93,3.36,0
				c0.93,0.93,0.93,2.44,0,3.36L26.26,54.8C25.8,55.26,25.19,55.5,24.58,55.5z"/>
			<path class="st0" d="M30.92,61.84c-0.61,0-1.22-0.23-1.68-0.7c-0.93-0.93-0.93-2.43,0-3.37l41.23-41.22
				c0.93-0.93,2.43-0.93,3.36,0c0.93,0.93,0.93,2.44,0,3.37L32.6,61.14C32.14,61.61,31.53,61.84,30.92,61.84z"/>
			<path class="st0" d="M37.26,68.18c-0.61,0-1.22-0.23-1.68-0.7c-0.93-0.93-0.93-2.43,0-3.37l28.54-28.54
				c0.93-0.93,2.43-0.93,3.36,0c0.93,0.93,0.93,2.44,0,3.37L38.94,67.48C38.48,67.95,37.87,68.18,37.26,68.18z"/>
			<path class="st0" d="M11.89,42.81c-0.6,0-1.21-0.23-1.68-0.7l-3.17-3.17c-0.93-0.93-0.93-2.44,0-3.37c0.93-0.93,2.44-0.93,3.36,0
				l3.17,3.17c0.93,0.93,0.93,2.44,0,3.36C13.11,42.58,12.5,42.81,11.89,42.81z"/>
			<path class="st0" d="M18.23,36.47c-0.61,0-1.22-0.23-1.68-0.69L0.7,19.92c-0.93-0.93-0.93-2.44,0-3.37
				c0.93-0.93,2.44-0.93,3.36,0l15.86,15.86c0.93,0.93,0.93,2.44,0,3.36C19.45,36.24,18.84,36.47,18.23,36.47z"/>
			<path class="st0" d="M24.58,30.13c-0.61,0-1.22-0.23-1.68-0.69L3.87,10.41c-0.93-0.93-0.93-2.44,0-3.36
				c0.93-0.93,2.44-0.93,3.36,0l19.03,19.03c0.93,0.93,0.93,2.44,0,3.36C25.8,29.9,25.19,30.13,24.58,30.13z"/>
			<path class="st0" d="M30.92,23.78c-0.61,0-1.22-0.23-1.68-0.69L10.21,4.06c-0.93-0.93-0.93-2.44,0-3.36
				c0.93-0.93,2.43-0.93,3.36,0L32.6,19.73c0.93,0.93,0.93,2.44,0,3.36C32.14,23.55,31.53,23.78,30.92,23.78z"/>
			<path class="st0" d="M37.26,17.44c-0.61,0-1.22-0.23-1.68-0.69L22.89,4.06c-0.93-0.93-0.93-2.44,0-3.36
				c0.93-0.93,2.44-0.93,3.37,0l12.68,12.68c0.93,0.93,0.93,2.44,0,3.36C38.48,17.21,37.87,17.44,37.26,17.44z"/>
		</g>
	</g>
</g>
</svg>
