<?xml version="1.0" encoding="UTF-8" standalone="no"?>
<!DOCTYPE svg PUBLIC "-//W3C//DTD SVG 1.1//EN" "http://www.w3.org/Graphics/SVG/1.1/DTD/svg11.dtd">
<!-- Created with Vectornator (http://vectornator.io/) -->
<svg height="100%" stroke-miterlimit="10" style="fill-rule:nonzero;clip-rule:evenodd;stroke-linecap:round;stroke-linejoin:round;" version="1.1" viewBox="0 0 233.4 68.2" width="100%" xml:space="preserve" xmlns="http://www.w3.org/2000/svg" xmlns:vectornator="http://vectornator.io" xmlns:xlink="http://www.w3.org/1999/xlink">
<defs/>
<clipPath id="ArtboardFrame">
<rect height="68.2" width="233.4" x="0" y="0"/>
</clipPath>
<g clip-path="url(#ArtboardFrame)" id="Untitled" vectornator:layerName="Untitled">
<g opacity="1">
<g opacity="1">
<g opacity="1">
<path d="M93.7 28.5C93.7 29.3 93.6 30 93.3 30.5C93 31 92.6 31.5 92.1 31.8C91.6 32.1 91 32.4 90.4 32.5C89.8 32.7 89.1 32.7 88.4 32.7L86.8 32.7L86.8 37.8L83.6 37.8L83.6 24.4L88.5 24.4C89.2 24.4 89.9 24.5 90.6 24.6C91.2 24.7 91.8 25 92.3 25.3C92.8 25.6 93.1 26.1 93.4 26.6C93.6 27.1 93.7 27.7 93.7 28.5ZM90.5 28.5C90.5 28.2 90.4 27.9 90.3 27.7C90.2 27.5 90 27.3 89.8 27.2C89.6 27.1 89.3 27 89.1 27C88.8 27 88.5 26.9 88.3 26.9L86.9 26.9L86.9 30.1L88.3 30.1C88.6 30.1 88.9 30.1 89.2 30C89.5 30 89.7 29.9 90 29.7C90.2 29.6 90.4 29.4 90.5 29.2C90.4 29.1 90.5 28.8 90.5 28.5Z" fill="#ffffff" fill-rule="nonzero" opacity="1" stroke="none"/>
<path d="M103.4 37.8L102.3 35.2L97.1 35.2L96.1 37.8L92.6 37.8L98.2 24.4L101.4 24.4L107 37.8L103.4 37.8ZM99.8 28L98.1 32.6L101.5 32.6L99.8 28Z" fill="#ffffff" fill-rule="nonzero" opacity="1" stroke="none"/>
<path d="M120.9 31C120.9 32 120.7 32.9 120.4 33.8C120.1 34.6 119.6 35.3 119 35.9C118.4 36.5 117.7 36.9 116.8 37.3C116 37.6 115 37.8 114 37.8C113 37.8 112.1 37.6 111.2 37.3C110.4 37 109.6 36.5 109 35.9C108.4 35.3 107.9 34.6 107.6 33.8C107.2 33 107 32 107 31C107 30 107.2 29.1 107.5 28.2C107.8 27.4 108.3 26.7 108.9 26.1C109.5 25.5 110.2 25.1 111.1 24.8C111.9 24.5 112.9 24.3 113.9 24.3C114.9 24.3 115.8 24.5 116.7 24.8C117.6 25.1 118.3 25.6 118.9 26.1C119.5 26.7 120 27.4 120.3 28.2C120.7 29.1 120.9 30 120.9 31ZM117.6 31C117.6 30.4 117.5 29.9 117.3 29.5C117.1 29.1 116.9 28.6 116.5 28.3C116.2 28 115.8 27.7 115.3 27.5C114.9 27.3 114.4 27.2 113.8 27.2C113.2 27.2 112.8 27.3 112.3 27.5C111.9 27.7 111.5 28 111.1 28.3C110.8 28.7 110.5 29.1 110.3 29.5C110.1 30 110 30.5 110 31C110 31.6 110.1 32.1 110.3 32.6C110.5 33.1 110.7 33.5 111.1 33.8C111.5 34.1 111.8 34.4 112.2 34.6C112.6 34.8 113.1 34.9 113.7 34.9C114.3 34.9 114.7 34.8 115.2 34.6C115.6 34.4 116 34.1 116.4 33.8C116.8 33.5 117 33 117.2 32.6C117.5 32.1 117.6 31.6 117.6 31Z" fill="#ffffff" fill-rule="nonzero" opacity="1" stroke="none"/>
<path d="M130.6 27.1L130.6 29.9L135.8 29.9L135.8 32.6L130.6 32.6L130.6 37.8L127.4 37.8L127.4 24.4L136.2 24.4L136.2 27.2C136.3 27.1 130.6 27.1 130.6 27.1Z" fill="#ffffff" fill-rule="nonzero" opacity="1" stroke="none"/>
<path d="M151.8 31C151.8 32 151.6 32.9 151.3 33.8C150.9 34.6 150.5 35.3 149.9 35.9C149.3 36.5 148.5 36.9 147.7 37.3C146.8 37.6 145.9 37.8 144.9 37.8C143.9 37.8 143 37.6 142.1 37.3C141.2 37 140.5 36.5 139.9 35.9C139.3 35.3 138.8 34.6 138.5 33.8C138.1 33 138 32 138 31C138 30 138.2 29.1 138.5 28.2C138.9 27.4 139.3 26.7 139.9 26.1C140.5 25.5 141.3 25.1 142.1 24.8C143 24.5 143.9 24.3 144.9 24.3C145.9 24.3 146.8 24.5 147.7 24.8C148.6 25.1 149.3 25.6 149.9 26.1C150.5 26.7 151 27.4 151.3 28.2C151.6 29.1 151.8 30 151.8 31ZM148.5 31C148.5 30.4 148.4 29.9 148.2 29.5C148 29 147.8 28.6 147.4 28.3C147.1 28 146.7 27.7 146.3 27.5C145.9 27.3 145.4 27.2 144.8 27.2C144.2 27.2 143.8 27.3 143.3 27.5C142.9 27.7 142.5 28 142.2 28.3C141.9 28.7 141.6 29.1 141.4 29.5C141.2 30 141.1 30.5 141.1 31C141.1 31.6 141.2 32.1 141.4 32.6C141.6 33.1 141.8 33.5 142.2 33.8C142.6 34.1 142.9 34.4 143.3 34.6C143.7 34.8 144.2 34.9 144.8 34.9C145.3 34.9 145.8 34.8 146.3 34.6C146.8 34.4 147.1 34.1 147.4 33.8C147.7 33.5 148 33 148.2 32.6C148.4 32.1 148.5 31.6 148.5 31Z" fill="#ffffff" fill-rule="nonzero" opacity="1" stroke="none"/>
<path d="M164.3 34.7C164 35.4 163.7 35.9 163.2 36.4C162.7 36.9 162.1 37.2 161.4 37.5C160.7 37.8 159.9 37.9 159.1 37.9C158.2 37.9 157.5 37.8 156.8 37.5C156.1 37.2 155.5 36.9 155 36.4C154.5 35.9 154.1 35.4 153.9 34.7C153.7 34 153.5 33.3 153.5 32.5L153.5 24.4L156.6 24.4L156.6 32.3C156.6 32.7 156.7 33 156.7 33.3C156.8 33.6 156.9 33.9 157.1 34.2C157.3 34.5 157.5 34.7 157.9 34.8C158.2 35 158.6 35 159 35C159.4 35 159.8 34.9 160.1 34.8C160.4 34.6 160.7 34.5 160.9 34.2C161.1 33.9 161.2 33.7 161.3 33.3C161.4 33 161.4 32.6 161.4 32.3L161.4 24.4L164.6 24.4L164.6 32.5C164.7 33.3 164.6 34 164.3 34.7Z" fill="#ffffff" fill-rule="nonzero" opacity="1" stroke="none"/>
<path d="M175.6 37.8L170.2 29L170.1 29L170.2 37.8L167.1 37.8L167.1 24.4L170.8 24.4L176.2 33.2L176.3 33.2L176.2 24.4L179.3 24.4L179.3 37.8L175.6 37.8L175.6 37.8Z" fill="#ffffff" fill-rule="nonzero" opacity="1" stroke="none"/>
<path d="M193.7 31C193.7 32.2 193.5 33.2 193 34C192.6 34.9 192 35.6 191.3 36.1C190.6 36.6 189.8 37.1 188.9 37.3C188 37.6 187.1 37.7 186.2 37.7L181.2 37.7L181.2 24.4L186.1 24.4C187 24.4 188 24.5 188.9 24.7C189.8 24.9 190.7 25.3 191.4 25.8C192.1 26.3 192.7 27 193.2 27.9C193.4 28.7 193.7 29.8 193.7 31ZM190.3 31C190.3 30.2 190.2 29.6 189.9 29.1C189.6 28.6 189.3 28.2 188.9 27.9C188.5 27.6 188 27.4 187.5 27.3C187 27.2 186.4 27.1 185.9 27.1L184.3 27.1L184.3 35L185.8 35C186.4 35 186.9 34.9 187.5 34.8C188.1 34.7 188.5 34.5 188.9 34.1C189.3 33.8 189.6 33.4 189.9 32.9C190.2 32.4 190.3 31.8 190.3 31Z" fill="#ffffff" fill-rule="nonzero" opacity="1" stroke="none"/>
<path d="M195.6 37.8L195.6 24.4L204.6 24.4L204.6 27.1L198.7 27.1L198.7 29.6L204.3 29.6L204.3 32.2L198.7 32.2L198.7 35L204.9 35L204.9 37.8L195.6 37.8L195.6 37.8Z" fill="#ffffff" fill-rule="nonzero" opacity="1" stroke="none"/>
<path d="M214.3 37.8L211.4 32.5L210.3 32.5L210.3 37.8L207.1 37.8L207.1 24.4L212.2 24.4C212.8 24.4 213.5 24.5 214.1 24.6C214.7 24.7 215.3 25 215.7 25.3C216.2 25.6 216.6 26 216.9 26.5C217.2 27 217.3 27.7 217.3 28.4C217.3 29.3 217.1 30.1 216.6 30.7C216.1 31.3 215.4 31.8 214.5 32L218 37.8L214.3 37.8L214.3 37.8ZM214.2 28.5C214.2 28.2 214.1 27.9 214 27.7C213.9 27.5 213.7 27.3 213.5 27.2C213.3 27.1 213.1 27 212.8 27C212.5 27 212.3 26.9 212 26.9L210.3 26.9L210.3 30L211.8 30C212.1 30 212.3 30 212.6 29.9C212.9 29.9 213.1 29.8 213.4 29.7C213.6 29.6 213.8 29.4 214 29.2C214.1 29.1 214.2 28.8 214.2 28.5Z" fill="#ffffff" fill-rule="nonzero" opacity="1" stroke="none"/>
<path d="M221.5 29.4L219.2 29.4L220.5 24.4L223.2 24.4L221.5 29.4Z" fill="#ffffff" fill-rule="nonzero" opacity="1" stroke="none"/>
<path d="M231.2 28C230.9 27.7 230.6 27.4 230.2 27.2C229.8 27 229.4 26.9 229 26.9C228.8 26.9 228.6 26.9 228.4 27C228.2 27 228 27.1 227.8 27.2C227.6 27.3 227.5 27.4 227.4 27.6C227.3 27.8 227.2 28 227.2 28.2C227.2 28.4 227.3 28.6 227.3 28.7C227.4 28.8 227.5 29 227.7 29.1C227.9 29.2 228.1 29.3 228.3 29.4C228.5 29.5 228.8 29.6 229.1 29.7C229.5 29.8 230 30 230.5 30.2C231 30.4 231.4 30.6 231.8 30.9C232.2 31.2 232.5 31.5 232.8 32C233 32.4 233.2 33 233.2 33.6C233.2 34.3 233.1 35 232.8 35.5C232.5 36 232.2 36.5 231.7 36.8C231.2 37.1 230.7 37.4 230.1 37.6C229.5 37.8 228.9 37.9 228.3 37.9C227.4 37.9 226.5 37.7 225.7 37.4C224.8 37.1 224.1 36.6 223.6 36L225.6 33.9C225.9 34.3 226.3 34.6 226.8 34.9C227.3 35.2 227.8 35.3 228.3 35.3C228.5 35.3 228.7 35.3 229 35.2C229.3 35.1 229.4 35.1 229.6 35C229.8 34.9 229.9 34.8 230 34.6C230.1 34.4 230.1 34.2 230.1 33.9C230.1 33.7 230 33.5 229.9 33.3C229.8 33.1 229.6 33 229.4 32.8C229.2 32.6 228.9 32.5 228.6 32.4C228.3 32.3 227.9 32.2 227.5 32C227.1 31.9 226.7 31.7 226.3 31.5C225.9 31.3 225.6 31.1 225.2 30.8C224.9 30.5 224.6 30.2 224.5 29.8C224.3 29.4 224.2 28.9 224.2 28.3C224.2 27.6 224.3 27 224.6 26.5C224.9 26 225.3 25.6 225.7 25.3C226.1 25 226.7 24.7 227.3 24.6C227.9 24.5 228.5 24.4 229.1 24.4C229.8 24.4 230.6 24.5 231.3 24.8C232 25.1 232.7 25.4 233.3 26L231.2 28Z" fill="#ffffff" fill-rule="nonzero" opacity="1" stroke="none"/>
</g>
<g opacity="1">
<path d="M96.8 58.7C95.7 59.2 94.4 59.5 92.9 59.5C91.6 59.5 90.3 59.3 89.2 58.8C88 58.4 87 57.8 86.2 57C85.4 56.2 84.7 55.2 84.2 54.1C83.7 53 83.5 51.7 83.5 50.4C83.5 49 83.7 47.8 84.2 46.6C84.7 45.4 85.4 44.5 86.2 43.7C87 42.9 88 42.3 89.2 41.9C90.4 41.5 91.6 41.3 92.9 41.3C94.1 41.3 95.3 41.5 96.5 42C97.7 42.5 98.6 43.1 99.4 43.9L96.6 46.7C96.2 46.2 95.7 45.8 95.1 45.5C94.5 45.2 93.8 45.1 93.1 45.1C92.4 45.1 91.7 45.2 91.1 45.5C90.5 45.8 90 46.1 89.5 46.6C89.1 47.1 88.7 47.6 88.5 48.3C88.3 49 88.1 49.6 88.1 50.4C88.1 51.2 88.2 51.9 88.5 52.6C88.7 53.3 89.1 53.8 89.5 54.3C89.9 54.8 90.4 55.1 91.1 55.4C91.7 55.7 92.4 55.8 93.1 55.8C93.9 55.8 94.7 55.6 95.3 55.3C95.9 55 96.4 54.5 96.8 54L99.7 56.7C98.8 57.5 97.9 58.2 96.8 58.7Z" fill="#ffffff" fill-rule="nonzero" opacity="1" stroke="none"/>
<path d="M112.8 59.5L112.8 51.9L105.7 51.9L105.7 59.5L101.3 59.5L101.3 41.2L105.7 41.2L105.7 48.1L112.8 48.1L112.8 41.2L117.2 41.2L117.2 59.4L112.8 59.5L112.8 59.5Z" fill="#ffffff" fill-rule="nonzero" opacity="1" stroke="none"/>
<path d="M133.7 59.5L132.3 55.9L125.2 55.9L123.9 59.5L119.1 59.5L126.8 41.3L131.1 41.3L138.7 59.5L133.7 59.5ZM128.8 46.1L126.5 52.4L131.1 52.4L128.8 46.1Z" fill="#ffffff" fill-rule="nonzero" opacity="1" stroke="none"/>
<path d="M140.5 59.5L140.5 41.2L144.9 41.2L144.9 55.6L152 55.6L152 59.4L140.5 59.4L140.5 59.5Z" fill="#ffffff" fill-rule="nonzero" opacity="1" stroke="none"/>
<path d="M154 59.5L154 41.2L158.4 41.2L158.4 55.6L165.5 55.6L165.5 59.4L154 59.4L154 59.5Z" fill="#ffffff" fill-rule="nonzero" opacity="1" stroke="none"/>
<path d="M168 59.5L168 41.2L180.3 41.2L180.3 45L172.3 45L172.3 48.5L179.9 48.5L179.9 52L172.3 52L172.3 55.8L180.8 55.8L180.8 59.6L168 59.5L168 59.5Z" fill="#ffffff" fill-rule="nonzero" opacity="1" stroke="none"/>
<path d="M194.6 59.5L187.2 47.6L187.1 47.6L187.2 59.5L183 59.5L183 41.2L188 41.2L195.3 53.1L195.4 53.1L195.3 41.2L199.6 41.2L199.6 59.4L194.6 59.5L194.6 59.5Z" fill="#ffffff" fill-rule="nonzero" opacity="1" stroke="none"/>
<path d="M215.1 59.1C214 59.4 212.7 59.5 211.4 59.5C210 59.5 208.7 59.3 207.6 58.8C206.4 58.4 205.4 57.7 204.6 56.9C203.8 56.1 203.1 55.1 202.6 54C202.1 52.9 201.9 51.6 201.9 50.3C201.9 48.9 202.1 47.6 202.6 46.5C203.1 45.4 203.7 44.4 204.6 43.6C205.5 42.8 206.5 42.2 207.6 41.8C208.7 41.4 210 41.2 211.3 41.2C212.7 41.2 213.9 41.4 215.1 41.8C216.3 42.2 217.2 42.8 218 43.5L215.4 46.5C215 46 214.5 45.6 213.8 45.3C213.1 45 212.4 44.8 211.5 44.8C210.8 44.8 210.1 44.9 209.5 45.2C208.9 45.5 208.3 45.8 207.9 46.3C207.4 46.8 207.1 47.4 206.8 48C206.6 48.7 206.4 49.4 206.4 50.2C206.4 51 206.5 51.7 206.7 52.4C206.9 53.1 207.3 53.6 207.7 54.1C208.1 54.6 208.7 55 209.4 55.2C210.1 55.4 210.8 55.6 211.7 55.6C212.2 55.6 212.7 55.6 213.1 55.5C213.5 55.4 214 55.3 214.3 55.1L214.3 51.9L211 51.9L211 48.5L218.1 48.5L218.1 58C217.2 58.5 216.3 58.8 215.1 59.1Z" fill="#ffffff" fill-rule="nonzero" opacity="1" stroke="none"/>
<path d="M220.5 59.5L220.5 41.2L232.8 41.2L232.8 45L224.8 45L224.8 48.5L232.4 48.5L232.4 52L224.8 52L224.8 55.8L233.3 55.8L233.3 59.6L220.5 59.5L220.5 59.5Z" fill="#ffffff" fill-rule="nonzero" opacity="1" stroke="none"/>
</g>
<g opacity="1">
<path d="M131 20.5C129.5 20.5 128.8 19.9 128.8 18.5L128.8 13.4C128.7 13.5 128.6 13.6 128.4 13.8C128.1 14.1 127.9 14.3 127.7 14.5C127.6 14 127.4 13.5 127.2 13.1C128.5 11.9 129.5 10.4 130.2 8.8L131.7 8.9C131.7 9 131.6 9.1 131.5 9.3C131.5 9.4 131.4 9.7 131.1 10L138 10C138 12 137.9 13.9 137.9 15.8C137.9 17.3 137.3 18 135.9 17.9C135.4 17.9 134.8 17.9 134.1 17.9C134.1 17.8 134 17.7 134 17.4C133.9 17 133.9 16.8 133.8 16.5L130 16.5L130 18.1C129.9 18.8 130.3 19.2 131.2 19.2L136.5 19.2C137.2 19.2 137.7 19 137.8 18.4C137.9 18 138 17.4 138 16.8C138.2 16.8 138.4 16.9 138.7 17C139 17.1 139.2 17.2 139.3 17.2C139.2 17.8 139.1 18.4 139 19C138.8 19.9 138.1 20.3 136.8 20.3L131 20.5L131 20.5ZM130.4 11.4C130.1 11.8 129.8 12.3 129.4 12.8L134.7 12.8L134.7 16.8L135.6 16.8C136.3 16.8 136.6 16.5 136.7 15.8C136.8 14.4 136.8 13 136.8 11.4C136.8 11.4 130.4 11.4 130.4 11.4ZM130.1 13.9L130.1 15.6L133.4 15.6L133.4 13.9L130.1 13.9Z" fill="#ffffff" fill-rule="nonzero" opacity="1" stroke="none"/>
<path d="M141 12.5L141 11.3L142.5 11.3L142.5 8.9L143.8 8.9L143.8 11.3L145 11.3L145 12.5L143.8 12.5L143.8 13.7L143.9 13.8C144.3 14.1 144.7 14.5 145.3 14.9L144.6 16L143.8 15.1L143.8 20.9L142.5 20.9L142.5 15.1C142.1 16.1 141.7 17.1 141.2 18C141.2 17.8 141.1 17.5 141 17.1C140.9 16.7 140.9 16.4 140.8 16.2C141.4 15.2 142 14 142.5 12.4L141 12.5L141 12.5ZM152.3 20.7C151 20.2 149.9 19.6 148.9 18.9C148.1 19.5 146.9 20.2 145.3 20.9C145.1 20.5 144.9 20.1 144.5 19.7C146 19.3 147.1 18.7 148 18.1C147.4 17.4 146.8 16.4 146.3 15.2L147.4 14.8C147.8 15.8 148.3 16.6 148.9 17.2C149.4 16.7 149.9 15.8 150.3 14.7L151.5 15.1C151.1 16.4 150.5 17.4 149.8 18.1C150.6 18.7 151.7 19.2 153.1 19.6C153 19.7 152.9 19.9 152.7 20.2C152.6 20.4 152.4 20.6 152.3 20.7ZM145.7 15.4C145.5 15.1 145.2 14.7 144.9 14.4C145.7 13.8 146.6 13 147.5 12L148.4 12.8C147.5 13.9 146.6 14.8 145.7 15.4ZM145.4 11.8L145.4 10.6L148.5 10.6C148.4 10.1 148.2 9.6 148 9L149.3 8.8L149.9 10.6L152.9 10.6L152.9 11.8C152.9 11.8 145.4 11.8 145.4 11.8ZM152.3 15.3C151.4 14.4 150.5 13.6 149.6 12.9L150.4 12.1C151 12.6 151.9 13.3 152.9 14.2C153 14.3 153 14.3 153 14.3L152.3 15.3Z" fill="#ffffff" fill-rule="nonzero" opacity="1" stroke="none"/>
<path d="M161.2 13.3L161.1 13.2C161.1 14.1 161.1 15 161 15.9C161 16.9 160.4 17.5 159.4 17.5L158 17.5C158 17.3 157.9 17 157.8 16.6C157.8 16.5 157.7 16.4 157.7 16.3C158.2 16.3 158.6 16.3 158.9 16.3C159.4 16.3 159.7 16.1 159.8 15.5C159.8 15.4 159.8 15.2 159.8 15C159.8 14.6 159.9 14.4 159.9 14.2L157.1 14.2L157.1 18.5C157.1 19.1 157.3 19.4 158 19.4L159.6 19.4C160.2 19.4 160.5 19.2 160.6 18.8C160.6 18.7 160.6 18.6 160.7 18.5C160.7 18.4 160.8 18.1 160.8 17.6C160.9 17.6 161 17.7 161.2 17.7C161.4 17.8 161.7 17.9 162.1 18C162.1 18.3 162 18.6 161.9 19.1C161.9 19.3 161.8 19.4 161.8 19.5C161.6 20.3 161 20.6 159.9 20.6L157.8 20.6C156.6 20.6 156 20.1 156 18.8L156 13.6C156 13.6 155.9 13.7 155.8 13.7C155.7 13.8 155.6 13.9 155.4 14.1C155.2 13.7 155 13.3 154.8 12.9C156.3 11.8 157.5 10.5 158.3 8.8L159.7 8.9C159.7 9 159.6 9 159.6 9.1C159.5 9.2 159.5 9.3 159.5 9.4C160.1 9.9 160.8 10.6 161.7 11.6C162 11.9 162.2 12.1 162.3 12.2L161.2 13.3ZM158.7 10.5C158.1 11.5 157.3 12.4 156.4 13.2L161.1 13.2C160.8 12.9 160.4 12.4 159.9 11.8C159.4 11.2 159 10.8 158.7 10.5ZM162.5 17.9L162.5 10.3L163.8 10.3L163.8 17.9L162.5 17.9ZM163 20.7C162.9 20.3 162.9 19.9 162.8 19.4C163.3 19.4 163.9 19.4 164.4 19.4C165 19.4 165.2 19.1 165.2 18.6L165.2 8.9L166.5 8.9L166.5 19C166.6 20.1 166 20.7 164.9 20.7C164.2 20.7 163.6 20.7 163 20.7Z" fill="#ffffff" fill-rule="nonzero" opacity="1" stroke="none"/>
<path d="M169.5 17.4C169.4 17.3 169.1 17.2 168.8 17C168.6 16.9 168.4 16.8 168.4 16.7C169.1 15.7 169.6 14.6 170.1 13.4L171.3 13.9C170.7 14.9 170.1 16.1 169.5 17.4ZM179.6 17.2C179.1 16.2 178.7 15.3 178.2 14.4C178.2 14.8 178.2 15.5 178.1 16.3C178.1 17.1 178.1 17.7 178 18.1C178 19.7 177.2 20.5 175.6 20.5C175.2 20.5 174.7 20.5 174 20.5C173.7 20.5 173.5 20.5 173.4 20.5C173.3 20.1 173.2 19.6 173.1 19.1C173.6 19.1 174.3 19.1 175.2 19.1C176.2 19.2 176.7 18.7 176.7 17.6C176.7 17.2 176.7 16.4 176.8 15.4C176.8 13.9 176.9 12.8 176.9 12.1L173.8 12.1L173.8 12.2C173.9 16.4 172.4 19.2 169.4 20.7C169.3 20.6 169.1 20.3 168.8 20.1C168.6 19.9 168.5 19.7 168.4 19.6C170 18.7 171 17.7 171.5 16.8C172 15.9 172.3 14.4 172.4 12.3L172.4 12.2L168.9 12.2L168.9 11L172.5 11C172.5 10.7 172.5 10.4 172.6 9.9C172.6 9.5 172.6 9.1 172.6 8.9L174 8.9C174 9.1 173.9 9.5 173.9 10C173.9 10.5 173.8 10.8 173.8 11.1L178.2 11.1L178.1 14L178.9 13.6C179.5 14.7 180.1 15.7 180.7 16.8L179.6 17.2Z" fill="#ffffff" fill-rule="nonzero" opacity="1" stroke="none"/>
<path d="M192 20.5C189.1 19 187.5 16.8 187 14C186.5 16.8 184.8 19 181.9 20.7C181.6 20.3 181.3 19.8 180.9 19.5C184.1 17.9 185.8 15.4 186.1 12C186.2 11.2 186.2 10.2 186.2 9L187.7 9C187.7 9.1 187.6 9.4 187.6 9.9C187.6 10.3 187.5 10.6 187.5 10.8C187.8 15.1 189.6 18 192.9 19.4C192.6 19.7 192.2 20.1 192 20.5Z" fill="#ffffff" fill-rule="nonzero" opacity="1" stroke="none"/>
<path d="M194.2 12.5L194.2 11.3L195.6 11.3L195.6 8.9L196.8 8.9L196.8 11.3L197.9 11.3L197.9 12.5L196.8 12.5L196.8 14.6C197.2 14.5 197.6 14.4 198 14.3C198 14.9 198 15.3 198.1 15.5L196.9 15.9L196.9 19.2C196.9 20.2 196.5 20.7 195.6 20.7C195.3 20.7 194.9 20.7 194.4 20.7C194.4 20.3 194.3 19.9 194.2 19.4C194.4 19.4 194.7 19.4 195.1 19.4C195.5 19.4 195.7 19.2 195.7 18.8L195.7 16.2C195.5 16.2 195.2 16.3 194.8 16.4C194.6 16.5 194.4 16.5 194.3 16.5L194.2 15.1C194.3 15.1 194.4 15.1 194.5 15C194.8 14.9 195.2 14.8 195.7 14.7L195.7 12.3L194.2 12.5L194.2 12.5ZM198.1 17.4L197.5 16.3C197.7 16.1 198.1 15.9 198.6 15.5C199.3 15 199.8 14.7 200.1 14.4L200.1 9L201.3 9L201.3 14.3C201.3 16.1 201.1 17.4 200.7 18.3C200.3 19.2 199.6 20.1 198.4 21C198.3 20.9 198.1 20.7 197.8 20.4C197.6 20.2 197.5 20.1 197.4 20C199 19 199.8 17.6 199.9 16L198.1 17.4ZM198.9 13.8C198.8 13.6 198.7 13.3 198.6 12.8C198.3 11.8 198 11.1 197.9 10.7L198.8 10.4C199 11 199.4 11.9 199.9 13.2C199.9 13.3 200 13.4 200 13.4L198.9 13.8ZM205.5 17.1C205.2 16.9 204.8 16.6 204.2 16.2C203.9 16 203.7 15.8 203.6 15.8L203.6 18.9C203.6 19.2 203.7 19.4 204.1 19.4L204.5 19.4C204.8 19.4 205 19.2 205.1 18.9C205.2 18.4 205.2 18 205.2 17.5C205.4 17.6 205.7 17.7 206.1 17.9C206.2 17.9 206.3 17.9 206.3 17.9C206.3 18.5 206.2 19 206.2 19.4C206 20.2 205.5 20.6 204.6 20.6L203.8 20.6C202.8 20.6 202.4 20.2 202.4 19.2L202.4 9L203.6 9L203.6 13.2C204 12.5 204.5 11.6 205 10.6L206 11.2C205.4 12.4 204.9 13.3 204.4 14L203.5 13.5L203.5 14.6C203.6 14.7 203.9 14.8 204.1 15C204.9 15.5 205.6 15.9 206.1 16.3L205.5 17.1Z" fill="#ffffff" fill-rule="nonzero" opacity="1" stroke="none"/>
<path d="M213.5 19.8C213.3 19.5 213.1 19.2 212.8 18.9L212.8 20.3L211.5 20.3L211.5 19.5L209.1 19.5L209.1 20.4L207.9 20.4L207.9 14.5L209.6 14.5L209.6 8.9L211 8.9L211 11.1L213.3 11.1L213.3 12.3L211 12.3L211 14.6L213 14.6L213 18.8C214.1 18.2 214.8 17.6 215.3 17.2C215.1 16.3 214.9 15 214.8 13.5L213.3 13.7L213.1 12.5L214.7 12.3L214.7 12.2C214.6 11 214.6 9.9 214.6 8.8L215.9 8.8C215.9 9.9 216 11 216 12.2L219.5 11.8L219.6 12.9L216 13.4C216.1 14.5 216.2 15.4 216.4 16.2C217.1 15.5 217.8 14.6 218.4 13.6L219.5 14.3C218.7 15.6 217.8 16.7 216.8 17.6C217 18.1 217.2 18.6 217.5 19C217.7 19.3 217.9 19.5 218.1 19.5C218.4 19.5 218.5 19.3 218.5 18.9C218.6 18.5 218.7 17.9 218.7 17.2C219.1 17.3 219.5 17.5 219.9 17.7C219.9 17.8 219.8 18 219.8 18.3C219.7 19 219.6 19.5 219.5 19.7C219.3 20.5 218.9 20.9 218.2 20.9C217.3 21 216.6 20.4 216.1 19.3C216 19.1 215.9 18.9 215.7 18.6C214.9 19 214.2 19.5 213.5 19.8ZM209.1 15.8L209.1 18.6L211.5 18.6L211.5 15.8L209.1 15.8ZM218 11.5C217.5 10.9 216.9 10.4 216.3 10L217.1 9.1C217.7 9.5 218.3 10 218.9 10.6L218 11.5Z" fill="#ffffff" fill-rule="nonzero" opacity="1" stroke="none"/>
<path d="M221.6 11.8L221.6 9.8L226.6 9.8C226.6 9.7 226.5 9.5 226.5 9.4C226.4 9.2 226.4 9.1 226.4 9L227.9 8.9C228 9.1 228 9.4 228.1 9.8L228.1 9.9L233 9.9L233 11.9L231.9 11.9L231.9 12.5L229.8 12.5L229.8 13.3L232.2 13.3L232.2 14L229.8 14L229.8 14.7L233.1 14.7L233.1 15.6L230.2 15.6C231.1 16.2 232.1 16.6 233.3 16.9C233.3 17 233.2 17.2 233.1 17.4C233 17.6 232.9 17.8 232.9 17.9C232.2 17.6 231.6 17.4 231.1 17.1L231.1 19L229.9 19L229.9 17.2L224.9 17.2L224.9 19.1L223.7 19.1L223.7 17.1C223.1 17.4 222.5 17.7 221.8 17.9C221.8 17.8 221.7 17.6 221.6 17.4C221.5 17.1 221.4 16.9 221.4 16.9C222.6 16.6 223.6 16.1 224.5 15.5L221.6 15.5L221.6 14.6L224.9 14.6L224.9 14L222.6 14L222.6 13.2L224.9 13.2L224.9 12.4L222.9 12.4L222.9 11.8L221.6 11.8L221.6 11.8ZM232.4 21C230.4 20.4 228.7 19.9 227.3 19.5L227.2 19.5C226.6 20.2 224.9 20.7 222.1 21C221.9 20.5 221.7 20.1 221.5 19.9C224.1 19.7 225.6 19.4 226.1 18.9C226.4 18.6 226.6 18.2 226.7 17.6L228 17.6C228 18 227.9 18.3 227.9 18.6L232.9 19.8L232.4 21ZM222.9 10.7L222.9 11.7L224.8 11.7L224.8 11L226.1 11L226.1 11.6L228.7 11.6L228.7 11L230 11L230 11.6L231.9 11.6L231.9 10.6L222.9 10.6L222.9 10.7ZM226 15.5C225.7 15.8 225.3 16.1 225 16.4L229.9 16.4C229.6 16.2 229.2 15.9 228.9 15.5L226 15.5ZM226.1 12.5L226.1 13.3L228.7 13.3L228.7 12.5L226.1 12.5ZM226.1 14L226.1 14.7L228.7 14.7L228.7 14L226.1 14Z" fill="#ffffff" fill-rule="nonzero" opacity="1" stroke="none"/>
</g>
<g opacity="1">
<path d="M83.8 20.7L83.8 18.4L88.3 14.3C88.6 14 88.8 13.7 89 13.5C89.2 13.3 89.3 12.9 89.3 12.6C89.3 12.2 89.2 11.8 88.9 11.6C88.6 11.3 88.3 11.2 87.9 11.2C87.4 11.2 87.1 11.4 86.8 11.7C86.5 12 86.3 12.4 86.3 13L83.7 12.6C83.8 12 83.9 11.5 84.2 11C84.4 10.5 84.8 10.1 85.2 9.8C85.6 9.5 86 9.2 86.5 9.1C87 8.9 87.5 8.8 88.1 8.8C88.6 8.8 89.2 8.9 89.7 9C90.2 9.1 90.6 9.4 91 9.6C91.4 9.9 91.7 10.3 91.9 10.7C92.1 11.1 92.2 11.7 92.2 12.3C92.2 12.7 92.1 13.1 92 13.4C91.9 13.7 91.7 14 91.6 14.3C91.4 14.6 91.2 14.9 90.9 15.1C90.6 15.3 90.4 15.6 90.1 15.8L87.4 18.2L92.1 18.2L92.1 20.6L83.8 20.7L83.8 20.7Z" fill="#ffffff" fill-rule="nonzero" opacity="1" stroke="none"/>
<path d="M102.4 14.9C102.4 15.7 102.3 16.5 102.2 17.2C102 17.9 101.8 18.6 101.4 19.1C101.1 19.6 100.6 20.1 100 20.4C99.4 20.7 98.8 20.9 98 20.9C97.2 20.9 96.5 20.7 96 20.4C95.4 20.1 95 19.6 94.6 19.1C94.2 18.6 94 17.9 93.8 17.2C93.6 16.5 93.6 15.7 93.6 14.9C93.6 14.1 93.7 13.3 93.8 12.6C94 11.9 94.2 11.3 94.6 10.7C95 10.2 95.4 9.7 96 9.4C96.6 9.1 97.2 9 98 9C98.8 9 99.5 9.2 100 9.5C100.5 9.8 101 10.3 101.4 10.8C101.7 11.3 102 12 102.2 12.7C102.3 13.4 102.4 14.1 102.4 14.9ZM99.7 14.9C99.7 14.5 99.7 14.2 99.6 13.7C99.6 13.3 99.5 12.9 99.4 12.5C99.3 12.1 99.1 11.8 98.9 11.6C98.7 11.4 98.4 11.2 98.1 11.2C97.8 11.2 97.5 11.3 97.2 11.6C96.9 11.9 96.8 12.2 96.7 12.5C96.6 12.9 96.5 13.3 96.5 13.7C96.5 14.1 96.4 14.5 96.4 14.9C96.4 15.3 96.4 15.7 96.5 16.1C96.5 16.5 96.6 16.9 96.7 17.3C96.8 17.7 97 18 97.2 18.2C97.4 18.4 97.7 18.6 98.1 18.6C98.5 18.6 98.7 18.5 98.9 18.2C99.1 17.9 99.3 17.6 99.4 17.3C99.5 16.9 99.6 16.5 99.6 16.1C99.7 15.7 99.7 15.3 99.7 14.9Z" fill="#ffffff" fill-rule="nonzero" opacity="1" stroke="none"/>
<path d="M103.9 20.7L103.9 18.4L108.4 14.3C108.7 14 108.9 13.7 109.1 13.5C109.3 13.3 109.4 12.9 109.4 12.6C109.4 12.2 109.3 11.8 109 11.6C108.7 11.3 108.4 11.2 108 11.2C107.5 11.2 107.2 11.4 106.9 11.7C106.6 12 106.4 12.4 106.4 13L103.8 12.6C103.9 12 104 11.5 104.3 11C104.5 10.5 104.9 10.1 105.3 9.8C105.7 9.5 106.1 9.2 106.6 9.1C107.1 8.9 107.6 8.8 108.2 8.8C108.7 8.8 109.3 8.9 109.8 9C110.3 9.1 110.7 9.4 111.1 9.6C111.5 9.9 111.8 10.3 112 10.7C112.2 11.1 112.3 11.7 112.3 12.3C112.3 12.7 112.2 13.1 112.1 13.4C112 13.7 111.8 14 111.7 14.3C111.5 14.6 111.3 14.9 111 15.1C110.7 15.3 110.5 15.6 110.2 15.8L107.5 18.2L112.2 18.2L112.2 20.6L103.9 20.7L103.9 20.7Z" fill="#ffffff" fill-rule="nonzero" opacity="1" stroke="none"/>
</g>
</g>
<g opacity="1">
<g opacity="1">
<path d="M30.9 61.8C30.1 61.8 29.4 61.4 28.9 60.7C28.2 59.6 28.5 58.1 29.6 57.4L64.5 35.2C65.6 34.5 67.1 34.8 67.8 35.9C68.5 37 68.2 38.5 67.1 39.2L32.2 61.5C31.8 61.7 31.4 61.8 30.9 61.8Z" fill="#7accf3" fill-rule="nonzero" opacity="1" stroke="none"/>
<path d="M24.6 55.5C23.9 55.5 23.1 55.2 22.7 54.5C21.9 53.4 22.2 52 23.2 51.2L70.8 16.3C71.9 15.5 73.4 15.7 74.1 16.8C74.8 17.9 74.7 19.3 73.6 20.1L26 55C25.6 55.3 25.1 55.5 24.6 55.5Z" fill="#7accf3" fill-rule="nonzero" opacity="1" stroke="none"/>
<path d="M18.2 49.2C17.5 49.2 16.8 48.9 16.3 48.2C15.5 47.2 15.7 45.7 16.8 44.9L67.5 6.8C68.6 6 70 6.2 70.8 7.3C71.6 8.4 71.4 9.8 70.3 10.6L19.6 48.6C19.2 49 18.7 49.2 18.2 49.2Z" fill="#7accf3" fill-rule="nonzero" opacity="1" stroke="none"/>
<path d="M11.9 42.8C11 42.8 10.1 42.3 9.7 41.4L0.2 19.2C-0.3 18 0.2 16.6 1.4 16.1C2.6 15.6 4 16.1 4.5 17.3L14 39.5C14.5 40.7 13.9 42.1 12.8 42.6C12.5 42.8 12.2 42.8 11.9 42.8Z" fill="#7accf3" fill-rule="nonzero" opacity="1" stroke="none"/>
<path d="M18.2 36.5C17.3 36.5 16.5 36 16.1 35.2L3.4 9.8C2.8 8.6 3.3 7.2 4.5 6.6C5.7 6 7.1 6.5 7.7 7.7L20.4 33C21 34.2 20.5 35.6 19.3 36.2C19 36.4 18.6 36.5 18.2 36.5Z" fill="#7accf3" fill-rule="nonzero" opacity="1" stroke="none"/>
<path d="M24.6 30.1C23.7 30.1 22.9 29.6 22.5 28.8L9.8 3.4C9.2 2.2 9.7 0.8 10.9 0.2C12.1-0.4 13.5 0.1 14.1 1.3L26.8 26.7C27.4 27.9 26.9 29.3 25.7 29.9C25.3 30 24.9 30.1 24.6 30.1Z" fill="#7accf3" fill-rule="nonzero" opacity="1" stroke="none"/>
<path d="M30.9 23.8C29.9 23.8 29 23.2 28.6 22.2L22.3 3.2C21.9 2 22.6 0.599999 23.8 0.199999C25-0.200001 26.4 0.499999 26.8 1.7L33.1 20.7C33.5 21.9 32.8 23.3 31.6 23.7C31.4 23.8 31.2 23.8 30.9 23.8Z" fill="#7accf3" fill-rule="nonzero" opacity="1" stroke="none"/>
<path d="M37.3 17.4C36.7 17.4 36.1 17.2 35.6 16.7C34.7 15.8 34.7 14.3 35.6 13.3L48.3 0.7C49.2-0.2 50.7-0.2 51.7 0.7C52.6 1.6 52.6 3.1 51.7 4.1L38.9 16.8C38.5 17.2 37.9 17.4 37.3 17.4Z" fill="#7accf3" fill-rule="nonzero" opacity="1" stroke="none"/>
</g>
<g opacity="1">
<path d="M43.6 11.1C43 11.1 42.4 10.9 41.9 10.4C41 9.5 41 8 41.9 7.1L48.2 0.8C49.1-0.1 50.6-0.1 51.6 0.8C52.5 1.7 52.5 3.2 51.6 4.2L45.3 10.5C44.8 10.9 44.2 11.1 43.6 11.1Z" fill="#ffffff" fill-rule="nonzero" opacity="1" stroke="none"/>
<path d="M18.2 49.2C17.6 49.2 17 49 16.5 48.5C15.6 47.6 15.6 46.1 16.5 45.1L61 0.7C61.9-0.2 63.4-0.2 64.4 0.7C65.3 1.6 65.3 3.1 64.4 4.1L19.9 48.5C19.5 48.9 18.8 49.2 18.2 49.2Z" fill="#ffffff" fill-rule="nonzero" opacity="1" stroke="none"/>
<path d="M24.6 55.5C24 55.5 23.4 55.3 22.9 54.8C22 53.9 22 52.4 22.9 51.4L67.3 7C68.2 6.1 69.7 6.1 70.7 7C71.7 7.9 71.6 9.4 70.7 10.4L26.3 54.8C25.8 55.3 25.2 55.5 24.6 55.5Z" fill="#ffffff" fill-rule="nonzero" opacity="1" stroke="none"/>
<path d="M30.9 61.8C30.3 61.8 29.7 61.6 29.2 61.1C28.3 60.2 28.3 58.7 29.2 57.7L70.4 16.5C71.3 15.6 72.8 15.6 73.8 16.5C74.8 17.4 74.7 18.9 73.8 19.9L32.6 61.1C32.1 61.6 31.5 61.8 30.9 61.8Z" fill="#ffffff" fill-rule="nonzero" opacity="1" stroke="none"/>
<path d="M37.3 68.2C36.7 68.2 36.1 68 35.6 67.5C34.7 66.6 34.7 65.1 35.6 64.1L64.1 35.6C65 34.7 66.5 34.7 67.5 35.6C68.5 36.5 68.4 38 67.5 39L38.9 67.5C38.5 67.9 37.9 68.2 37.3 68.2Z" fill="#ffffff" fill-rule="nonzero" opacity="1" stroke="none"/>
<path d="M11.9 42.8C11.3 42.8 10.7 42.6 10.2 42.1L7 38.9C6.1 38 6.1 36.5 7 35.5C7.9 34.5 9.4 34.6 10.4 35.5L13.6 38.7C14.5 39.6 14.5 41.1 13.6 42.1C13.1 42.6 12.5 42.8 11.9 42.8Z" fill="#ffffff" fill-rule="nonzero" opacity="1" stroke="none"/>
<path d="M18.2 36.5C17.6 36.5 17 36.3 16.5 35.8L0.7 19.9C-0.2 19-0.2 17.5 0.7 16.5C1.6 15.5 3.1 15.6 4.1 16.5L20 32.4C20.9 33.3 20.9 34.8 20 35.8C19.5 36.2 18.8 36.5 18.2 36.5Z" fill="#ffffff" fill-rule="nonzero" opacity="1" stroke="none"/>
<path d="M24.6 30.1C24 30.1 23.4 29.9 22.9 29.4L3.9 10.4C2.9 9.5 2.9 8 3.9 7.1C4.8 6.2 6.3 6.2 7.3 7.1L26.3 26.1C27.2 27 27.2 28.5 26.3 29.5C25.8 29.9 25.2 30.1 24.6 30.1Z" fill="#ffffff" fill-rule="nonzero" opacity="1" stroke="none"/>
<path d="M30.9 23.8C30.3 23.8 29.7 23.6 29.2 23.1L10.2 4.1C9.3 3.2 9.3 1.7 10.2 0.699999C11.1-0.200001 12.6-0.200001 13.6 0.699999L32.6 19.7C33.5 20.6 33.5 22.1 32.6 23.1C32.1 23.5 31.5 23.8 30.9 23.8Z" fill="#ffffff" fill-rule="nonzero" opacity="1" stroke="none"/>
<path d="M37.3 17.4C36.7 17.4 36.1 17.2 35.6 16.7L22.9 4.1C22 3.2 22 1.7 22.9 0.7C23.8-0.2 25.3-0.2 26.3 0.7L39 13.4C39.9 14.3 39.9 15.8 39 16.8C38.5 17.2 37.9 17.4 37.3 17.4Z" fill="#ffffff" fill-rule="nonzero" opacity="1" stroke="none"/>
</g>
</g>
</g>
<path d="M114.273 20.5918L114.273 18.2918L118.773 14.1918C119.073 13.8918 119.273 13.5918 119.473 13.3918C119.673 13.1918 119.773 12.7918 119.773 12.4918C119.773 12.0918 119.673 11.6918 119.373 11.4918C119.073 11.1918 118.773 11.0918 118.373 11.0918C117.873 11.0918 117.573 11.2918 117.273 11.5918C116.973 11.8918 116.773 12.2918 116.773 12.8918L114.173 12.4918C114.273 11.8918 114.373 11.3918 114.673 10.8918C114.873 10.3918 115.273 9.9918 115.673 9.6918C116.073 9.3918 116.473 9.0918 116.973 8.9918C117.473 8.7918 117.973 8.6918 118.573 8.6918C119.073 8.6918 119.673 8.7918 120.173 8.8918C120.673 8.9918 121.073 9.2918 121.473 9.4918C121.873 9.7918 122.173 10.1918 122.373 10.5918C122.573 10.9918 122.673 11.5918 122.673 12.1918C122.673 12.5918 122.573 12.9918 122.473 13.2918C122.373 13.5918 122.173 13.8918 122.073 14.1918C121.873 14.4918 121.673 14.7918 121.373 14.9918C121.073 15.1918 120.873 15.4918 120.573 15.6918L117.873 18.0918L122.573 18.0918L122.573 20.4918L114.273 20.5918L114.273 20.5918Z" fill="#ffffff" fill-rule="nonzero" opacity="1" stroke="none"/>
</g>
</svg>
